<?xml version="1.0" standalone="no"?>
<!DOCTYPE svg PUBLIC "-//W3C//DTD SVG 20010904//EN"
 "http://www.w3.org/TR/2001/REC-SVG-20010904/DTD/svg10.dtd">
<svg version="1.0" xmlns="http://www.w3.org/2000/svg"
 width="1772.000000pt" height="1772.000000pt" viewBox="0 0 1772.000000 1772.000000"
 preserveAspectRatio="xMidYMid meet">
<metadata>
Created by potrace 1.11, written by Peter Selinger 2001-2013
</metadata>
<g transform="translate(0.000000,1772.000000) scale(0.100000,-0.100000)"
fill="#000000" stroke="none">
<path d="M8215 17291 c-6 -5 -57 -11 -115 -14 -98 -4 -177 -13 -340 -38 -36
-5 -117 -16 -180 -24 -104 -13 -251 -39 -370 -65 -25 -5 -65 -14 -90 -19 -24
-5 -52 -19 -61 -30 -10 -12 -21 -21 -26 -21 -4 -1 -26 -9 -48 -20 -54 -26 -85
-26 -78 0 4 16 0 20 -18 20 -13 0 -31 -5 -39 -10 -13 -8 -12 -11 4 -23 19 -14
19 -15 -2 -26 -19 -10 -29 -8 -62 10 -35 20 -44 21 -73 11 -19 -7 -42 -12 -53
-12 -10 -1 -37 -9 -59 -20 -22 -11 -51 -19 -64 -20 -14 0 -38 -4 -55 -9 -17
-5 -56 -17 -86 -25 -51 -15 -418 -136 -520 -172 -61 -21 -231 -87 -295 -113
-341 -143 -573 -251 -830 -390 -66 -35 -136 -72 -155 -83 -19 -10 -42 -23 -50
-28 -8 -5 -91 -55 -185 -111 -147 -88 -491 -310 -535 -346 -8 -7 -60 -45 -115
-85 -240 -175 -500 -387 -695 -566 -234 -215 -638 -630 -729 -747 -12 -16 -48
-58 -78 -93 -115 -130 -263 -324 -439 -574 -297 -422 -546 -857 -778 -1361
-114 -246 -287 -703 -362 -952 -8 -27 -19 -63 -24 -80 -5 -16 -14 -50 -21 -75
-6 -25 -18 -60 -25 -78 -8 -18 -14 -42 -14 -53 0 -12 -6 -42 -14 -68 -28 -89
-46 -158 -46 -176 0 -10 -7 -41 -15 -69 -8 -28 -21 -85 -29 -126 -8 -41 -24
-118 -35 -170 -11 -52 -26 -138 -35 -190 -8 -52 -22 -136 -31 -186 -8 -50 -15
-111 -15 -135 0 -24 -5 -64 -11 -89 -25 -105 -32 -296 -32 -950 0 -654 7 -845
32 -950 6 -25 11 -65 11 -89 0 -24 7 -85 15 -135 9 -50 23 -134 31 -186 9 -52
24 -138 35 -190 11 -52 27 -129 35 -170 8 -41 21 -98 29 -126 8 -28 15 -59 15
-69 0 -18 18 -87 46 -176 8 -26 14 -56 14 -68 0 -11 6 -35 14 -53 7 -18 19
-53 25 -78 7 -25 16 -58 21 -75 5 -16 16 -52 24 -80 75 -249 248 -707 362
-952 48 -105 243 -496 285 -573 134 -245 320 -543 493 -788 167 -237 157 -224
341 -457 162 -205 333 -394 590 -651 214 -214 332 -326 435 -414 36 -30 67
-57 70 -60 53 -53 465 -374 590 -460 19 -13 37 -27 40 -30 3 -4 93 -64 200
-134 107 -71 214 -141 238 -157 23 -16 45 -29 48 -29 5 0 130 -72 224 -130
115 -70 627 -330 757 -384 35 -14 86 -37 115 -49 29 -13 73 -32 98 -42 25 -9
59 -23 75 -30 17 -7 48 -20 70 -28 22 -9 81 -31 130 -50 50 -19 135 -50 190
-68 55 -18 105 -35 110 -39 6 -4 26 -11 45 -15 19 -4 48 -13 65 -20 16 -7 57
-21 90 -31 33 -9 78 -23 100 -29 62 -19 144 -42 215 -60 36 -9 85 -23 110 -31
25 -8 54 -14 65 -14 11 0 40 -6 65 -14 25 -8 81 -22 125 -31 44 -9 100 -21
125 -27 68 -16 281 -54 430 -78 41 -6 113 -18 160 -26 47 -8 103 -14 125 -14
22 0 77 -7 123 -15 123 -21 1808 -21 1921 0 42 8 96 15 121 15 25 0 81 6 125
14 44 8 116 20 160 26 128 19 359 60 435 78 25 6 81 18 125 27 44 10 100 24
124 31 25 8 54 14 65 14 12 0 41 6 66 14 25 8 74 22 110 31 36 10 85 23 110
30 25 7 70 20 100 29 90 25 508 166 605 203 170 65 161 62 421 172 225 96 698
332 824 411 8 5 89 54 180 108 91 54 239 148 329 208 90 60 170 114 179 119 8
6 23 15 31 22 9 7 61 45 116 85 147 107 323 245 486 382 281 234 702 654 953
950 468 550 845 1119 1140 1721 127 259 156 322 227 490 4 11 16 40 27 65 10
25 33 81 50 125 17 44 42 110 57 148 47 123 162 477 212 657 8 30 20 71 26 90
6 19 14 53 18 75 4 22 13 60 19 85 19 74 37 150 54 230 15 72 24 117 61 310 9
47 20 114 25 150 12 95 29 225 41 305 28 181 32 312 32 955 0 643 -4 774 -32
955 -12 80 -29 210 -41 305 -8 62 -22 141 -56 310 -47 233 -50 247 -88 398 -9
34 -23 90 -32 125 -47 191 -174 593 -241 767 -61 158 -116 297 -129 324 -8 16
-14 32 -14 37 0 4 -16 42 -36 86 -140 306 -247 520 -371 743 -21 37 -191 322
-236 394 -27 43 -221 333 -239 356 -10 14 -46 63 -80 110 -34 47 -74 101 -90
120 -16 19 -32 40 -36 45 -155 213 -442 537 -721 815 -344 343 -553 523 -981
845 -30 23 -72 51 -92 64 -21 12 -38 26 -38 29 0 4 -9 12 -19 17 -11 6 -98 62
-193 125 -96 63 -183 120 -194 127 -244 149 -264 158 -281 130 -4 -8 -16 -17
-26 -20 -25 -9 -15 -33 12 -30 38 5 61 -14 61 -50 0 -27 8 -39 42 -65 48 -37
68 -40 68 -11 0 14 5 19 18 17 12 -2 18 -14 20 -41 2 -29 12 -46 40 -72 20
-19 42 -35 49 -35 6 0 18 -6 25 -13 7 -7 25 -21 41 -31 22 -15 30 -16 42 -6
15 13 14 14 30 -35 2 -8 15 -15 29 -15 14 0 39 -13 56 -28 25 -23 30 -34 25
-55 -6 -23 -3 -27 22 -33 15 -4 36 -16 47 -26 12 -13 26 -18 40 -14 11 3 24 6
29 6 4 0 7 16 7 35 0 32 -2 35 -30 35 -41 0 -38 16 7 35 33 14 38 14 55 -1 10
-10 18 -22 18 -29 0 -20 35 -45 62 -45 15 0 43 -17 74 -45 27 -25 51 -45 54
-45 3 0 51 -44 107 -97 56 -54 126 -118 157 -143 30 -25 59 -57 65 -72 5 -16
16 -28 24 -28 26 0 66 -65 72 -117 6 -44 15 -58 81 -127 41 -44 74 -87 74 -97
0 -10 4 -21 10 -24 6 -4 5 -13 -2 -25 -10 -15 -7 -25 16 -55 16 -20 44 -43 62
-51 19 -8 34 -20 34 -28 0 -7 7 -19 15 -26 8 -7 15 -20 15 -29 0 -9 14 -33 31
-54 32 -39 43 -87 21 -94 -7 -3 -34 17 -60 44 -26 27 -64 59 -84 72 -21 12
-38 26 -38 30 0 22 -169 231 -187 231 -7 0 -20 12 -30 28 -9 15 -33 45 -54 67
-20 22 -40 49 -43 60 -6 21 -53 48 -68 39 -5 -3 -4 -12 3 -20 10 -12 9 -13 -5
-8 -9 3 -16 12 -16 19 0 6 -9 20 -20 30 -11 10 -20 23 -20 29 0 18 -290 306
-308 306 -5 0 -27 16 -48 35 -22 19 -43 35 -48 35 -5 0 -26 20 -48 45 -22 25
-45 45 -52 45 -7 0 -23 11 -36 25 -13 14 -42 34 -65 45 -22 11 -65 45 -94 76
-29 31 -74 66 -100 78 -26 12 -64 40 -85 64 -21 23 -50 45 -65 49 -14 3 -42
18 -61 33 -19 15 -43 29 -54 31 -10 2 -28 21 -40 42 -25 44 -84 77 -138 77
-33 0 -39 4 -52 34 -8 18 -23 40 -33 47 -11 8 -23 20 -27 28 -14 22 34 3 74
-30 47 -39 94 -40 112 -2 8 18 23 30 42 33 27 5 27 6 10 21 -31 27 -65 41 -86
36 -14 -4 -22 0 -25 13 -7 25 -52 54 -80 52 -12 -1 -25 3 -28 8 -4 6 -21 17
-38 25 -18 8 -50 28 -72 45 -22 16 -46 29 -53 30 -19 0 -103 39 -137 64 -45
32 -182 94 -500 227 -207 86 -691 253 -712 245 -32 -13 19 -85 60 -86 11 0 31
-9 45 -20 18 -15 34 -19 53 -15 18 4 41 -1 66 -13 21 -11 52 -26 68 -33 17 -8
41 -21 54 -31 17 -13 42 -18 93 -18 60 0 69 -2 67 -17 -1 -10 1 -26 6 -36 16
-38 -48 -65 -76 -31 -23 27 -65 43 -126 47 -55 3 -65 7 -114 49 -79 66 -94 73
-139 58 -34 -11 -40 -10 -76 13 -21 13 -50 34 -63 46 -28 25 -44 26 -65 6 -29
-30 -69 -18 -137 41 -35 30 -65 59 -67 65 -2 5 12 9 31 9 20 0 40 7 48 16 11
14 10 18 -6 30 -11 8 -38 19 -60 25 -22 6 -62 16 -90 24 -149 40 -251 59 -272
51 -7 -3 -13 -15 -13 -26 0 -26 -25 -36 -53 -22 -12 6 -31 12 -42 14 -11 2
-21 12 -23 23 -2 11 -14 30 -25 43 l-22 23 -22 -27 c-18 -23 -30 -28 -68 -28
-45 -1 -48 0 -59 34 -13 42 -40 56 -123 65 -68 7 -77 0 -53 -45 14 -26 6 -28
-75 -20 -38 3 -86 2 -105 -2 -31 -8 -274 2 -450 17 -30 3 -158 5 -283 5 -140
0 -236 4 -248 10 -13 8 -37 7 -79 -2 l-60 -12 -55 59 c-30 33 -55 68 -55 77 0
16 -12 18 -129 18 -84 0 -132 -4 -137 -11 -4 -7 -20 -9 -40 -6 -28 5 -37 1
-54 -20 -11 -15 -23 -38 -26 -52 -3 -14 -12 -45 -21 -69 -13 -36 -19 -43 -37
-38 -11 2 -53 8 -91 11 -58 6 -73 4 -84 -9 -7 -9 -18 -16 -24 -16 -6 0 -19 -7
-29 -17 -17 -15 -19 -15 -36 0 -10 10 -30 17 -43 17 -14 0 -34 7 -45 15 -10 8
-39 15 -63 15 -34 0 -52 -7 -83 -32 -37 -29 -44 -31 -118 -30 -58 2 -81 -2
-90 -13 -7 -8 -20 -15 -30 -15 -10 0 -23 -7 -30 -15 -14 -17 -76 -20 -86 -4
-3 6 -18 9 -32 6 -14 -3 -39 1 -56 8 -26 11 -28 15 -13 20 22 9 22 33 0 58
-17 18 -17 20 10 43 18 15 41 24 63 24 30 0 37 -4 46 -31 9 -26 15 -30 42 -27
25 2 32 8 34 31 4 35 36 36 68 2 18 -19 28 -23 45 -17 12 5 42 5 68 1 46 -7
83 3 109 28 16 16 23 16 58 3 43 -17 170 8 189 36 28 44 20 124 -10 95z m590
-78 c39 -38 1 -78 -70 -74 -66 3 -142 20 -147 33 -2 4 13 18 32 31 29 21 47
25 103 25 46 0 72 -5 82 -15z m-1627 -159 c2 -27 11 -57 19 -67 13 -13 14 -24
7 -45 -9 -25 -14 -27 -70 -30 -50 -2 -66 -8 -84 -27 -44 -46 -2 -72 63 -39 17
10 45 16 62 16 16 -1 62 6 100 14 218 48 290 60 280 45 -11 -19 -69 -39 -125
-45 -30 -3 -77 -10 -105 -16 -27 -5 -75 -12 -105 -16 -30 -3 -72 -12 -93 -20
-20 -8 -53 -14 -72 -14 -19 0 -35 -4 -35 -10 0 -5 -23 -10 -51 -10 -36 0 -58
-6 -76 -20 -17 -13 -41 -20 -72 -20 -25 0 -55 -7 -65 -15 -11 -8 -39 -15 -62
-15 -24 0 -46 -4 -49 -10 -11 -18 -41 -29 -54 -20 -10 6 -7 11 12 22 44 22 19
43 -50 42 -59 -1 -91 -12 -128 -44 -11 -9 -51 -25 -90 -36 -38 -10 -73 -22
-77 -28 -13 -20 15 -38 49 -33 40 7 45 -10 6 -19 -33 -7 -146 -49 -186 -70
-16 -8 -43 -14 -60 -13 -30 0 -29 1 18 20 28 11 57 26 65 34 8 7 30 16 47 20
64 13 50 45 -19 45 -24 0 -38 5 -38 13 0 22 83 95 116 102 18 3 40 15 50 26
19 21 88 27 100 8 4 -8 29 -10 71 -6 59 4 67 8 102 46 l38 41 109 0 c116 0
134 6 134 46 0 12 8 32 19 45 16 20 29 23 108 27 83 4 93 7 122 34 17 16 32
34 33 41 0 7 2 17 3 22 2 6 3 16 4 23 0 8 7 12 14 10 7 -3 13 -26 15 -54z
m1457 -3 c0 -28 -195 -65 -210 -40 -12 19 8 27 83 33 40 3 80 10 90 15 21 13
37 9 37 -8z m153 3 c39 -11 24 -24 -28 -24 -38 0 -50 4 -50 15 0 16 36 20 78
9z m255 -11 c11 -11 -25 -43 -48 -43 -23 0 -59 32 -48 43 3 4 25 7 48 7 23 0
45 -3 48 -7z m182 -32 c0 -32 -16 -36 -44 -10 -18 17 -20 23 -9 30 25 17 53 6
53 -20z m-956 -17 c-23 -25 -48 -32 -50 -14 -5 30 -1 35 26 41 43 8 50 0 24
-27z m-126 9 c-7 -2 -21 -2 -30 0 -10 3 -4 5 12 5 17 0 24 -2 18 -5z m-188
-23 c4 -6 -18 -10 -59 -10 -35 0 -71 -3 -80 -6 -9 -3 -16 -1 -16 4 0 10 33 16
117 20 17 1 35 -2 38 -8z m2051 -11 c15 -25 -14 -30 -52 -10 l-39 20 42 1 c23
0 45 -5 49 -11z m-2246 -14 c0 -12 -77 -35 -119 -35 -51 0 -87 15 -61 24 8 3
42 7 75 9 33 2 70 4 83 5 12 1 22 0 22 -3z m2545 -32 c63 -6 95 -17 95 -33 0
-14 -37 -12 -100 6 -30 9 -74 16 -97 15 -34 -1 -43 2 -43 15 0 14 7 16 43 10
23 -4 69 -9 102 -13z m293 -53 c63 -10 79 -20 34 -20 -18 0 -41 -5 -51 -12
-15 -9 -24 -7 -49 13 -37 29 -41 44 -9 34 12 -4 46 -11 75 -15z m167 -36 c77
-13 375 -93 389 -106 14 -12 -54 -10 -94 3 -19 6 -53 15 -75 19 -22 4 -71 20
-110 34 -38 14 -84 26 -102 26 -42 0 -86 17 -78 31 4 6 14 7 24 4 9 -4 30 -9
46 -11z m-4745 -139 c-16 -19 -50 -20 -50 -1 0 8 12 16 28 18 35 4 38 2 22
-17z m5260 5 c0 -5 -11 -10 -24 -10 -14 0 -28 5 -31 10 -4 6 7 10 24 10 17 0
31 -4 31 -10z m178 -56 c57 -19 113 -34 125 -34 23 0 91 -49 69 -50 -7 0 -29
7 -49 15 -21 9 -63 18 -95 22 -34 3 -59 11 -62 19 -3 8 -20 14 -43 14 -24 0
-45 7 -60 22 -27 25 -30 43 -5 33 9 -4 63 -22 120 -41z m-4924 27 c6 -9 -16
-21 -40 -21 -20 0 -17 18 4 23 28 8 31 7 36 -2z m-104 -31 c0 -4 -18 -10 -40
-12 -36 -3 -51 7 -35 23 7 8 75 -2 75 -11z m-770 -20 c0 -5 -4 -10 -10 -10 -5
0 -10 5 -10 10 0 6 5 10 10 10 6 0 10 -4 10 -10z m440 -9 c-1 -9 -41 -36 -78
-50 -20 -8 -49 -11 -75 -8 -38 5 -47 3 -69 -21 -48 -49 -64 -62 -81 -62 -8 0
-17 -5 -19 -11 -6 -17 -117 -32 -134 -18 -10 8 -18 9 -27 0 -14 -11 -27 -5
-27 11 0 5 17 16 38 24 20 9 55 24 78 35 22 10 47 19 55 19 8 0 39 9 69 20 30
11 64 20 75 20 11 1 47 13 80 28 53 25 116 32 115 13z m6059 -26 c13 -14 34
-28 47 -31 45 -11 26 -27 -23 -20 -36 5 -56 15 -83 41 l-35 35 35 0 c24 0 42
-8 59 -25z m-315 -71 c9 -3 16 -12 16 -20 0 -21 -34 -17 -55 6 -18 19 -17 20
3 20 11 0 27 -3 36 -6z m550 -34 c12 -12 -2 -30 -23 -30 -21 0 -54 33 -44 44
8 8 54 -1 67 -14z m-6382 -3 c-6 -7 -28 -18 -49 -25 -21 -7 -63 -25 -95 -39
-54 -25 -88 -26 -88 -3 0 6 8 13 18 16 9 4 31 12 49 20 17 8 44 14 60 14 15 1
39 7 53 15 33 19 67 20 52 2z m6017 -33 c15 -11 19 -20 13 -26 -7 -7 -25 -1
-54 16 l-43 26 30 0 c17 0 41 -7 54 -16z m82 -57 c-13 -13 -26 -3 -16 12 3 6
11 8 17 5 6 -4 6 -10 -1 -17z m-6435 -32 c-11 -8 -24 -15 -28 -15 -5 0 -33
-18 -63 -40 -36 -27 -65 -40 -86 -40 -17 0 -43 -8 -57 -19 -28 -19 -104 -56
-160 -77 -19 -7 -44 -21 -55 -32 -12 -11 -42 -28 -67 -38 -25 -10 -56 -26 -69
-36 -13 -10 -32 -18 -41 -18 -10 0 -20 -6 -23 -13 -2 -7 -22 -21 -43 -32 -20
-11 -58 -39 -83 -62 -35 -33 -54 -43 -81 -43 -19 0 -44 -7 -54 -15 -11 -8 -31
-15 -45 -15 -19 0 -36 -12 -61 -45 -19 -24 -42 -44 -51 -45 -8 0 -42 -20 -75
-45 -32 -24 -66 -45 -75 -45 -9 0 -34 -16 -55 -35 -22 -19 -45 -35 -51 -35 -7
0 -13 -4 -13 -9 0 -5 -12 -12 -27 -16 -15 -3 -42 -19 -59 -35 -22 -19 -40 -27
-53 -23 -29 7 -26 26 7 41 15 6 43 25 62 41 19 16 46 38 60 49 21 17 22 22 11
35 -18 22 -10 31 66 73 l66 37 17 -24 c16 -21 21 -22 42 -11 12 7 36 24 52 38
26 23 27 26 12 43 -9 10 -16 22 -16 28 0 5 38 29 85 53 46 23 102 59 123 80
22 20 58 46 80 58 23 12 50 30 62 42 16 16 33 20 79 20 33 0 63 -5 67 -11 11
-18 74 0 131 38 29 19 74 41 100 49 26 8 52 19 57 24 6 6 17 10 27 10 9 0 28
9 42 20 14 11 35 20 46 20 22 0 58 18 136 65 22 13 49 24 60 24 20 0 20 0 1
-14z m6549 5 c4 -6 -7 -10 -24 -10 -17 0 -31 5 -31 10 0 6 11 10 24 10 14 0
28 -4 31 -10z m-7089 -47 c9 -15 26 -36 36 -47 22 -24 22 -30 3 -46 -16 -13
-25 -11 -85 20 -26 13 -8 100 20 100 4 0 16 -12 26 -27z m7180 5 l49 -23 -32
-3 c-31 -3 -82 22 -83 41 0 12 15 8 66 -15z m109 -48 c3 -5 -3 -10 -14 -10
-12 0 -21 5 -21 10 0 6 6 10 14 10 8 0 18 -4 21 -10z m395 -7 c14 -10 38 -25
53 -33 24 -13 37 -30 22 -30 -80 0 -80 0 -97 31 -30 51 -22 62 22 32z m-140
-123 c0 -5 -9 -10 -20 -10 -11 0 -20 5 -20 10 0 6 9 10 20 10 11 0 20 -4 20
-10z m460 -251 c0 -5 -4 -9 -10 -9 -5 0 -10 7 -10 16 0 8 5 12 10 9 6 -3 10
-10 10 -16z m538 -31 c17 -17 15 -28 -7 -28 -22 0 -35 15 -26 30 8 13 18 13
33 -2z m-443 -18 c3 -5 -1 -10 -9 -10 -9 0 -16 5 -16 10 0 6 4 10 9 10 6 0 13
-4 16 -10z m583 -83 c2 -10 -3 -17 -12 -17 -10 0 -16 9 -16 21 0 24 23 21 28
-4z m-283 -107 c3 -5 1 -10 -4 -10 -6 0 -11 5 -11 10 0 6 2 10 4 10 3 0 8 -4
11 -10z m66 -47 c13 -15 12 -15 -8 -4 -24 12 -29 21 -14 21 5 0 15 -7 22 -17z
m-9439 -104 c-5 -34 -42 -76 -87 -99 -17 -9 -31 -24 -33 -37 -2 -13 -6 -23
-10 -24 -4 0 -21 -2 -39 -3 -20 -2 -60 -25 -110 -63 -106 -80 -171 -123 -188
-123 -7 0 -24 -14 -37 -31 -51 -67 -78 -89 -111 -89 l-32 0 40 35 c22 19 54
47 70 63 17 16 44 37 61 47 17 10 39 31 48 46 10 16 24 29 32 29 13 0 146 95
185 132 8 7 33 26 56 41 22 16 44 39 47 52 5 18 15 26 41 31 19 3 38 10 41 15
13 22 30 8 26 -22z m9648 -35 c0 -2 -7 -4 -15 -4 -8 0 -15 4 -15 10 0 5 7 7
15 4 8 -4 15 -8 15 -10z m450 -353 c21 -17 22 -21 7 -21 -24 0 -67 29 -67 47
0 15 17 8 60 -26z m-10770 -151 c10 -24 10 -33 0 -45 -7 -8 -17 -15 -22 -15
-25 0 -78 -54 -84 -85 -5 -27 -11 -34 -33 -37 -15 -2 -30 -12 -35 -24 -7 -15
-24 -25 -50 -31 -40 -8 -41 -9 -42 -53 0 -42 -2 -45 -30 -48 -37 -4 -52 -18
-36 -34 19 -19 14 -28 -15 -28 -17 0 -38 -12 -59 -32 -18 -18 -49 -46 -69 -62
-21 -17 -47 -46 -60 -66 -12 -20 -46 -61 -74 -92 -28 -31 -60 -76 -71 -101
-11 -25 -26 -47 -33 -50 -16 -6 -67 -106 -67 -130 0 -11 -8 -17 -21 -17 -12 0
-23 -8 -26 -20 -3 -11 -12 -20 -19 -20 -8 0 -14 -9 -14 -19 0 -26 -10 -51 -21
-51 -5 0 -9 22 -9 49 0 28 -5 53 -10 56 -15 9 -40 -13 -40 -35 0 -10 -7 -23
-15 -30 -8 -7 -15 -27 -15 -44 0 -35 -30 -71 -64 -78 -11 -1 -23 -15 -27 -30
-4 -15 -25 -49 -48 -76 -23 -26 -41 -53 -41 -59 0 -6 -6 -16 -14 -22 -8 -7
-17 -26 -20 -44 -4 -20 -24 -51 -49 -78 -33 -33 -45 -55 -51 -88 -4 -29 -17
-55 -36 -75 -17 -16 -34 -45 -39 -63 -5 -17 -29 -58 -54 -91 -25 -32 -47 -69
-49 -82 -4 -34 -43 -40 -51 -8 -6 23 -7 22 -42 -13 -38 -37 -58 -90 -56 -146
1 -23 -4 -33 -19 -38 -11 -3 -20 -10 -20 -16 0 -5 -16 -15 -35 -23 -21 -9 -35
-22 -35 -33 0 -28 -27 -97 -39 -101 -6 -2 -11 -13 -11 -25 -1 -12 -7 -33 -15
-47 -8 -14 -14 -44 -15 -67 0 -23 -7 -48 -15 -57 -8 -8 -19 -26 -25 -40 -6
-17 -20 -28 -38 -32 -22 -4 -34 -16 -48 -47 -10 -23 -17 -45 -16 -49 4 -14
-56 -113 -69 -113 -23 0 -22 35 3 73 14 20 50 89 82 152 31 63 60 122 65 130
5 8 14 26 20 40 6 14 21 41 33 60 11 19 32 55 45 80 14 25 40 72 59 105 19 33
43 78 55 100 34 66 45 84 62 103 10 10 17 23 17 29 0 14 61 66 68 58 3 -3 0
-11 -6 -17 -15 -15 -15 -38 0 -38 26 0 126 139 111 154 -6 5 -38 -11 -66 -33
-42 -34 -28 9 26 80 15 20 27 40 27 44 0 4 14 24 30 45 17 21 30 43 30 50 0 7
14 29 30 50 17 21 30 41 30 45 0 4 18 31 40 59 47 59 83 109 107 150 10 17 27
39 38 51 11 12 33 41 50 66 16 24 50 67 75 95 43 48 120 166 120 183 0 13 203
216 223 224 9 3 21 17 26 29 12 31 184 205 255 258 31 23 56 46 56 51 0 13
198 207 240 235 45 29 45 29 60 -6z m-230 -360 c0 -5 -4 -10 -10 -10 -5 0 -10
5 -10 10 0 6 5 10 10 10 6 0 10 -4 10 -10z m11807 -200 c14 -11 34 -20 43 -20
22 0 87 -27 94 -39 3 -4 18 -11 33 -14 30 -6 123 -63 136 -84 4 -6 14 -18 21
-25 7 -8 21 -30 31 -48 9 -19 25 -44 35 -55 9 -11 25 -43 35 -70 16 -46 16
-53 2 -87 -13 -31 -13 -39 -1 -55 7 -10 14 -36 14 -58 0 -33 9 -51 49 -101 48
-59 83 -80 114 -68 21 8 30 -12 17 -37 -14 -26 -6 -65 15 -73 21 -8 95 30 95
49 0 22 17 18 23 -6 4 -16 -2 -25 -28 -40 -36 -22 -49 -46 -39 -73 9 -22 50
-20 74 4 11 11 24 20 28 20 5 0 24 -21 43 -47 19 -25 38 -52 44 -59 7 -9 5
-17 -7 -26 -24 -19 -34 -150 -13 -168 9 -7 15 -28 15 -51 0 -46 13 -56 45 -35
l25 16 -6 -43 c-5 -35 0 -55 25 -108 17 -36 31 -74 31 -83 0 -29 18 -53 56
-75 l37 -22 24 24 c24 23 24 25 9 62 -18 43 -21 75 -6 75 11 0 11 -2 15 -38 1
-13 11 -33 22 -45 11 -12 25 -36 31 -54 11 -35 3 -43 -44 -43 -30 0 -33 -34
-4 -52 11 -7 20 -23 20 -36 0 -24 25 -63 68 -106 12 -13 22 -31 22 -40 0 -24
30 -33 45 -13 19 26 27 20 20 -13 -5 -22 -1 -40 14 -66 l21 -36 -37 4 c-35 3
-38 1 -41 -25 -3 -24 2 -29 43 -47 26 -11 57 -20 70 -20 27 0 61 -29 48 -40
-4 -5 -17 -10 -28 -12 -27 -4 -32 -44 -9 -69 13 -14 25 -18 42 -14 26 6 52 -9
52 -32 0 -9 -6 -12 -18 -9 -12 4 -27 -3 -42 -19 -13 -14 -34 -25 -47 -25 -13
0 -31 -5 -41 -11 -27 -17 -76 9 -80 41 -2 14 -10 39 -18 57 -8 17 -14 41 -14
52 0 21 -17 56 -60 129 -11 17 -18 32 -15 32 2 0 -5 21 -15 46 -11 25 -20 57
-20 71 0 19 -15 40 -51 73 -47 43 -50 49 -44 81 5 26 2 41 -13 59 -10 14 -22
37 -25 51 -4 14 -25 47 -48 73 -37 42 -41 51 -36 84 7 43 -7 66 -46 81 -16 6
-27 18 -27 29 0 10 -17 45 -39 78 -21 32 -41 69 -45 81 -4 11 -13 27 -21 33
-8 7 -15 18 -15 26 0 7 -11 25 -25 40 -14 15 -25 37 -25 50 0 21 -21 51 -77
113 -13 13 -23 32 -23 41 0 9 -13 30 -30 46 -17 17 -30 40 -30 55 0 15 -9 38
-20 52 -11 14 -20 29 -20 34 0 13 -49 63 -62 63 -18 0 -58 42 -58 61 0 9 -7
22 -15 29 -8 7 -15 19 -15 27 0 8 -7 27 -16 44 -18 37 -11 67 19 71 29 4 39
68 11 68 -10 0 -25 -6 -33 -14 -14 -13 -21 -11 -58 11 -46 27 -59 63 -24 63
42 0 66 76 37 115 -12 16 -19 18 -43 10 -24 -9 -28 -17 -31 -50 -4 -64 -7 -68
-39 -51 -16 8 -45 35 -66 60 -26 31 -46 46 -62 46 -28 0 -37 11 -25 30 9 14
-7 50 -28 63 -11 7 -10 13 4 28 21 23 20 23 51 -1z m-12477 -539 c0 -6 -4 -13
-10 -16 -5 -3 -10 1 -10 9 0 9 5 16 10 16 6 0 10 -4 10 -9z m-10 -211 c0 -5
-2 -10 -4 -10 -3 0 -8 5 -11 10 -3 6 -1 10 4 10 6 0 11 -4 11 -10z m13523
-532 c-10 -21 -12 -21 -18 -5 -10 25 2 54 17 39 8 -8 8 -18 1 -34z m-14129
-126 c7 -11 -31 -72 -44 -72 -15 0 -12 18 7 51 18 30 28 35 37 21z m-81 -153
c-5 -18 -14 -34 -21 -37 -17 -5 -15 23 3 38 8 7 16 27 16 44 1 21 3 24 6 10 2
-12 0 -37 -4 -55z m-43 -100 c0 -5 -18 -27 -39 -48 -29 -29 -41 -36 -45 -25
-3 8 3 20 14 26 11 7 20 23 20 35 0 22 16 33 38 25 6 -2 12 -8 12 -13z m-198
-432 c-5 -7 -13 -34 -17 -62 -8 -57 -28 -95 -51 -95 -12 0 -14 7 -9 33 4 17
13 39 21 48 8 8 14 23 14 32 0 9 5 19 11 22 5 4 15 19 21 33 6 16 12 22 15 14
3 -7 1 -18 -5 -25z m-237 -180 c-7 -31 -24 -76 -38 -100 -14 -23 -28 -65 -32
-92 -8 -62 -26 -115 -44 -137 -17 -20 -41 -86 -41 -114 0 -11 -7 -29 -15 -40
-8 -10 -15 -38 -15 -62 0 -28 -5 -45 -15 -48 -8 -4 -15 -16 -15 -28 0 -12 -9
-38 -20 -59 -11 -20 -20 -50 -20 -66 0 -15 -13 -53 -30 -84 -28 -53 -31 -87
-7 -87 5 0 3 -8 -5 -17 -11 -13 -16 -46 -17 -126 -1 -82 -5 -113 -17 -124 -8
-9 -12 -23 -9 -34 4 -10 0 -31 -9 -46 -24 -45 -34 -86 -28 -121 2 -18 -1 -38
-6 -45 -6 -7 -14 -33 -17 -57 -7 -46 -29 -102 -53 -131 -7 -9 -12 -20 -10 -25
1 -5 -2 -19 -6 -32 -5 -16 -3 -29 8 -41 15 -16 14 -19 -9 -41 -14 -13 -25 -34
-25 -47 0 -13 -7 -40 -15 -60 -8 -19 -15 -57 -15 -83 0 -33 -5 -50 -14 -53
-10 -4 -17 -28 -22 -68 -5 -44 -9 -57 -16 -45 -5 9 -13 16 -18 16 -17 0 -50
-39 -50 -60 0 -24 25 -26 48 -4 24 25 27 2 6 -57 -17 -47 -46 -74 -66 -62 -15
8 -9 172 7 210 8 19 15 51 15 69 0 18 6 51 14 71 7 21 21 81 31 133 10 52 24
108 32 124 8 16 12 39 8 53 -4 16 0 34 11 50 9 15 14 37 11 56 -2 17 2 42 9
56 8 14 14 37 14 50 0 13 14 39 30 58 22 24 30 44 30 70 0 36 32 117 51 129 5
3 9 14 9 25 0 11 7 22 15 25 25 10 18 43 -10 50 -20 5 -25 12 -25 39 0 19 5
37 10 40 6 3 10 18 10 33 1 15 7 38 15 52 8 14 14 37 15 51 0 15 6 32 14 38 8
7 18 27 22 44 3 17 10 38 14 47 11 22 38 91 45 118 4 12 10 22 14 22 8 0 33
72 66 192 9 32 20 60 25 63 4 3 11 24 15 47 4 23 22 71 40 107 17 36 38 82 46
101 16 43 60 122 64 118 2 -2 -3 -29 -10 -61z m15104 -99 c4 -129 4 -131 35
-141 24 -8 32 -6 42 7 11 15 13 13 24 -19 13 -41 2 -65 -32 -65 -10 0 -21 -7
-24 -15 -10 -24 16 -47 45 -42 21 4 35 -5 81 -55 30 -34 62 -78 70 -99 9 -21
21 -44 28 -51 6 -6 12 -21 12 -32 0 -20 10 -56 40 -141 70 -202 94 -297 113
-436 7 -47 17 -92 23 -100 6 -8 19 -50 29 -94 9 -44 23 -92 31 -107 8 -14 14
-48 14 -75 0 -26 5 -55 10 -63 6 -10 4 -22 -6 -37 -14 -23 -10 -73 6 -73 17 0
19 -33 3 -60 -16 -27 -16 -31 1 -69 15 -32 17 -53 12 -108 -7 -71 -29 -133
-47 -133 -16 0 -35 -23 -44 -50 -4 -14 -12 -30 -17 -37 -5 -6 -9 -48 -9 -92 0
-44 -4 -83 -9 -86 -6 -4 -10 16 -10 48 0 30 -7 74 -15 97 -8 23 -15 57 -15 74
-1 17 -7 42 -15 56 -8 14 -15 53 -15 90 0 41 -6 72 -15 84 -8 11 -15 36 -15
56 0 23 -8 46 -21 61 -18 20 -20 32 -15 79 4 39 1 64 -9 84 -8 16 -15 49 -15
75 0 26 -7 56 -15 68 -13 19 -13 24 0 50 18 34 19 67 2 85 -36 37 -47 69 -47
132 0 54 -5 72 -26 103 -25 36 -26 43 -21 131 2 51 1 95 -4 97 -4 3 -10 18
-14 34 -3 16 -17 39 -31 52 -29 27 -64 137 -64 202 0 38 -5 49 -30 70 -27 23
-29 30 -31 98 -2 78 -12 103 -61 154 -28 29 -29 32 -26 120 l3 90 35 6 c19 4
40 7 47 8 7 0 12 -13 12 -31z m-14979 -28 c0 -22 -4 -40 -10 -40 -5 0 -10 18
-10 40 0 22 5 40 10 40 6 0 10 -18 10 -40z m-46 -157 c-19 -34 -26 -58 -25
-93 0 -31 -5 -52 -14 -60 -8 -7 -15 -25 -15 -41 0 -15 -4 -30 -9 -33 -5 -4
-12 -29 -16 -56 -4 -27 -11 -52 -16 -56 -5 -3 -9 -20 -9 -37 0 -18 -9 -45 -20
-62 -11 -16 -20 -41 -20 -56 0 -14 -4 -29 -8 -35 -5 -5 -14 -45 -21 -89 -7
-44 -19 -100 -27 -123 -9 -29 -12 -61 -8 -93 6 -43 3 -52 -20 -79 -30 -36 -33
-48 -40 -145 -3 -38 -10 -99 -17 -135 -6 -36 -13 -94 -15 -130 -2 -36 -8 -90
-15 -120 -6 -30 -12 -81 -13 -113 -1 -32 -8 -63 -14 -69 -7 -7 -12 -31 -12
-54 0 -23 -7 -60 -15 -84 -10 -29 -12 -47 -5 -60 17 -32 12 -120 -10 -166 -12
-23 -26 -68 -32 -101 -10 -54 -9 -61 16 -107 31 -59 32 -71 5 -115 -19 -32
-21 -32 -39 -16 -12 11 -26 14 -39 10 -30 -9 -28 29 4 67 28 33 30 49 14 80
-8 14 -8 23 0 31 6 6 11 37 11 69 0 53 -2 59 -25 68 -21 8 -24 14 -19 35 8 32
-11 55 -45 55 -47 0 -52 10 -48 97 3 65 9 89 30 126 15 25 27 52 27 61 0 23
52 66 80 66 37 0 65 23 79 67 9 28 10 45 2 66 -6 16 -11 42 -11 59 0 18 -7 36
-17 44 -17 12 -17 13 0 19 12 5 17 18 17 51 0 39 -2 44 -23 44 -26 0 -47 17
-47 38 0 11 8 13 35 8 31 -6 40 -3 64 23 27 29 42 81 41 139 -1 31 -1 101 -1
140 0 25 6 34 25 42 29 10 42 59 32 113 -5 24 -1 41 12 58 29 39 45 76 38 88
-4 6 -2 26 5 45 8 23 9 42 2 62 -11 32 -3 66 22 90 8 9 15 23 15 32 0 9 7 26
15 36 8 11 15 39 15 62 0 31 8 55 30 87 21 32 30 57 30 85 0 29 7 48 23 65 12
13 31 39 41 58 19 32 20 32 24 11 2 -13 -9 -43 -24 -69z m-489 -1453 c3 -5 2
-10 -4 -10 -5 0 -13 5 -16 10 -3 6 -2 10 4 10 5 0 13 -4 16 -10z m16075 -420
c0 -5 -7 -10 -16 -10 -8 0 -12 5 -9 10 3 6 10 10 16 10 5 0 9 -4 9 -10z
m-16305 -176 c17 -11 25 -26 25 -45 0 -15 5 -31 10 -34 15 -9 12 -51 -4 -64
-8 -7 -12 -21 -9 -32 4 -15 0 -22 -15 -26 -11 -3 -23 -11 -26 -19 -7 -18 10
-64 24 -64 5 0 13 -12 16 -26 5 -20 0 -32 -25 -57 -58 -61 -48 -132 21 -132
l33 0 -2 -98 c-1 -53 -7 -107 -14 -118 -6 -12 -12 -81 -13 -164 -1 -103 -5
-147 -15 -159 -11 -13 -11 -19 0 -32 11 -13 10 -17 -4 -25 -21 -12 -22 -42 -2
-59 8 -7 15 -28 15 -48 0 -19 7 -43 15 -52 11 -12 16 -50 20 -146 5 -155 14
-274 21 -285 2 -4 -11 -22 -31 -40 -40 -37 -44 -63 -16 -117 18 -35 18 -42 5
-91 -13 -52 -13 -55 12 -97 14 -24 30 -44 35 -44 5 0 8 -21 8 -47 -2 -85 7
-167 19 -190 7 -12 12 -32 12 -45 0 -13 4 -28 9 -34 26 -26 42 -107 48 -241 4
-102 10 -146 19 -154 8 -7 14 -31 14 -61 0 -27 7 -65 15 -85 14 -32 14 -38 0
-53 -23 -26 -18 -47 21 -82 32 -29 34 -36 29 -69 -4 -23 -2 -47 6 -61 7 -12
14 -59 16 -103 3 -69 7 -84 29 -106 19 -20 24 -32 18 -53 -7 -29 21 -106 39
-106 5 0 7 -14 3 -33 -5 -27 -2 -37 16 -54 13 -11 31 -23 41 -26 16 -6 18 -15
21 -82 1 -11 7 -31 15 -43 10 -19 10 -30 1 -53 -16 -38 -8 -55 29 -62 28 -6
31 -10 31 -45 0 -32 5 -41 25 -50 14 -6 25 -20 25 -29 0 -10 11 -30 25 -45 29
-31 32 -53 10 -74 -20 -20 -19 -70 1 -86 45 -36 74 -72 74 -93 0 -13 7 -30 15
-39 8 -8 18 -30 22 -48 3 -18 14 -49 23 -68 9 -19 15 -40 13 -47 -2 -6 1 -14
6 -18 6 -3 11 -26 11 -51 0 -41 2 -45 30 -50 29 -6 30 -8 30 -65 0 -54 2 -60
34 -84 19 -14 37 -38 41 -53 6 -23 38 -65 103 -135 9 -10 16 -29 14 -42 -4
-32 15 -65 38 -65 28 0 34 -19 14 -41 -20 -22 -16 -28 63 -106 34 -33 43 -49
43 -76 0 -29 5 -37 30 -47 16 -7 30 -18 30 -25 0 -8 3 -15 8 -17 15 -7 52 -68
52 -87 0 -26 23 -33 50 -14 17 12 27 13 46 4 35 -16 31 -39 -6 -33 -39 6 -50
-20 -22 -50 79 -88 85 -98 73 -124 -16 -36 12 -84 49 -84 31 0 50 -17 50 -43
0 -19 35 -89 60 -117 50 -58 65 -79 83 -113 10 -21 35 -52 55 -70 60 -54 82
-79 82 -93 0 -6 21 -33 46 -59 26 -27 43 -53 40 -61 -7 -18 -33 -18 -43 0 -4
8 -24 31 -43 52 -19 21 -48 57 -65 81 -39 55 -156 205 -170 218 -6 6 -38 49
-70 98 -111 163 -140 203 -168 232 -15 17 -27 33 -27 38 0 4 -9 20 -19 35 -42
60 -141 213 -141 218 0 3 -11 20 -25 38 -14 18 -25 37 -25 43 0 6 -15 30 -32
54 -18 24 -44 66 -58 92 -15 29 -34 50 -47 54 -18 4 -23 12 -23 38 0 42 -51
152 -81 175 -4 3 -23 39 -44 80 -21 41 -42 82 -46 90 -48 83 -139 269 -139
285 0 7 -5 17 -10 20 -6 4 -20 28 -31 53 -11 26 -27 59 -35 74 -8 14 -14 32
-14 38 0 7 -10 34 -21 59 -27 57 -36 80 -44 109 -4 12 -10 22 -15 22 -5 0 -12
16 -16 35 -3 19 -10 38 -15 40 -4 3 -11 27 -15 53 -4 26 -10 49 -14 52 -12 8
-50 97 -50 117 0 10 -7 27 -15 37 -8 11 -15 34 -15 52 0 17 -7 37 -15 44 -8 7
-15 23 -15 36 0 12 -4 25 -9 28 -5 3 -12 23 -16 43 -4 21 -13 52 -20 68 -7 17
-15 41 -18 55 -6 29 -24 81 -42 125 -8 17 -16 41 -19 55 -16 77 -37 157 -46
172 -6 10 -10 26 -10 37 0 10 -7 24 -15 31 -22 18 -18 47 6 53 18 5 20 11 15
33 -4 15 -16 39 -27 52 -10 14 -19 33 -19 42 0 10 -7 31 -15 46 -8 16 -15 48
-15 71 0 23 -4 44 -9 47 -4 3 -12 42 -15 87 -4 45 -12 91 -17 103 -9 22 -22
106 -40 256 -5 47 -17 108 -24 136 -8 28 -15 88 -15 133 0 45 -5 91 -10 102
-6 10 -15 69 -20 131 -5 62 -13 138 -19 168 -5 30 -10 114 -10 187 -1 103 -5
140 -18 168 -15 31 -15 40 -3 68 14 33 14 48 4 201 -3 52 -1 99 5 115 6 14 12
90 15 168 3 79 8 149 13 155 4 7 10 73 13 145 4 83 10 137 18 145 7 7 12 42
12 88 0 46 5 81 12 88 15 15 14 15 43 -4z m16215 -146 c0 -5 10 -8 21 -8 40 0
129 -66 129 -95 0 -7 -7 -18 -15 -25 -19 -16 -20 -56 -1 -63 18 -7 32 -162 16
-182 -7 -8 -8 -20 -4 -27 5 -7 9 -29 10 -48 1 -19 5 -50 9 -67 6 -27 4 -33 -9
-33 -24 0 -36 -41 -29 -104 6 -62 17 -72 27 -26 3 17 10 30 16 30 16 0 12 -57
-5 -64 -11 -4 -15 -20 -15 -54 0 -30 -6 -54 -14 -61 -32 -26 -29 -171 3 -171
28 0 42 -68 34 -170 -3 -50 -10 -93 -15 -96 -4 -3 -8 -16 -8 -30 0 -24 -23
-34 -35 -14 -10 17 -34 11 -46 -11 -9 -17 -8 -31 1 -60 12 -34 11 -41 -3 -57
-10 -10 -17 -35 -17 -55 0 -41 -30 -147 -42 -147 -4 0 -8 -24 -8 -54 0 -36 -5
-58 -15 -66 -9 -7 -13 -21 -10 -31 9 -26 -10 -31 -30 -9 -13 14 -31 20 -62 20
-50 0 -66 20 -39 49 9 10 16 25 16 33 0 9 6 21 14 27 21 18 29 114 12 147 -10
19 -12 33 -5 45 5 10 9 59 9 109 0 54 5 100 12 113 7 12 16 81 20 157 4 74 10
162 13 195 4 33 7 141 8 240 2 164 0 180 -15 183 -11 2 -18 -3 -18 -12 0 -9
-8 -16 -19 -16 -30 0 -43 98 -17 133 18 23 36 22 36 -4 0 -14 5 -19 18 -17 15
3 17 24 20 243 l3 240 24 -40 c14 -22 25 -43 25 -47z m-15910 -493 c0 -8 -4
-15 -10 -15 -5 0 -10 7 -10 15 0 8 5 15 10 15 6 0 10 -7 10 -15z m20 -342 c0
-21 -12 -43 -25 -43 -15 0 -28 60 -19 85 6 16 9 15 25 -6 10 -13 19 -29 19
-36z m3930 -58 c7 -8 18 -15 25 -15 19 0 133 -114 145 -145 13 -33 32 -10
-216 -261 l-191 -194 -89 -2 c-189 -4 -308 3 -334 20 -14 9 -105 95 -203 191
-199 196 -185 169 -132 257 26 44 111 104 147 104 26 0 88 -34 96 -52 2 -5 10
-8 17 -8 8 0 20 -6 27 -12 15 -14 16 -15 123 -79 39 -23 84 -53 102 -67 l32
-24 73 48 c40 27 78 52 83 56 58 47 146 108 155 108 5 0 10 4 10 9 0 9 98 80
111 81 4 0 12 -7 19 -15z m-3902 -408 c24 -62 38 -172 24 -181 -14 -8 -9 -113
6 -128 19 -19 15 -66 -7 -77 -20 -11 -31 -5 -31 17 0 8 -13 31 -30 52 -35 45
-38 71 -9 109 19 26 20 37 14 104 -6 63 -11 77 -26 82 -19 6 -19 7 1 32 11 14
20 32 20 40 0 27 19 3 38 -50z m5027 -333 c123 -21 149 -36 165 -93 20 -70 20
-212 0 -272 -14 -45 -21 -53 -56 -66 -90 -34 -332 -38 -393 -7 -14 8 -33 14
-41 14 -40 0 -63 214 -34 316 16 55 23 65 54 78 28 13 155 41 205 45 6 1 51
-6 100 -15z m6407 0 c137 -23 162 -40 172 -111 3 -24 9 -62 12 -85 6 -41 -9
-162 -27 -205 -5 -13 -16 -23 -24 -23 -9 0 -27 -7 -41 -17 -37 -24 -325 -23
-369 1 -16 9 -38 16 -47 16 -11 0 -18 8 -18 18 0 11 -7 34 -16 51 -13 27 -16
55 -12 142 3 65 9 114 16 121 7 7 12 19 12 28 0 24 41 41 145 61 50 9 93 17
97 18 5 1 50 -6 100 -15z m4549 -31 c-9 -15 -10 -12 -10 17 0 29 1 32 10 18 7
-12 7 -24 0 -35z m-12391 -26 c95 -9 156 -20 182 -33 15 -8 36 -14 48 -14 12
0 40 -8 63 -19 23 -10 61 -27 85 -37 23 -10 42 -21 42 -26 0 -4 6 -8 13 -8 8
0 24 -9 37 -20 13 -11 26 -20 30 -20 13 0 139 -131 145 -151 4 -10 10 -19 15
-19 4 0 10 -8 14 -17 3 -10 10 -25 15 -33 80 -122 95 -408 25 -477 -8 -8 -14
-21 -14 -28 0 -8 -10 -17 -22 -21 -12 -3 -28 -13 -36 -20 -7 -8 -21 -14 -31
-14 -9 0 -22 -5 -28 -11 -7 -7 -56 -14 -111 -17 -79 -4 -107 -1 -132 12 -18 9
-41 16 -50 16 -15 0 -18 15 -24 108 -19 287 -154 445 -381 445 -149 0 -262
-71 -337 -212 -10 -18 -18 -37 -18 -43 0 -5 -6 -24 -14 -41 -35 -82 -56 -260
-55 -482 0 -203 9 -326 25 -362 8 -17 14 -40 14 -51 0 -20 17 -67 52 -139 11
-23 48 -71 82 -105 77 -78 87 -85 123 -94 15 -4 31 -12 35 -18 5 -7 58 -11
155 -10 118 0 154 4 178 17 17 9 37 17 46 17 9 0 41 14 72 30 31 17 61 30 67
30 6 0 29 12 53 27 63 41 80 51 104 62 11 5 24 15 28 20 15 25 49 7 114 -59
38 -38 76 -85 85 -104 9 -19 21 -38 26 -41 6 -3 10 -13 10 -22 0 -8 8 -31 17
-50 16 -35 16 -36 -8 -55 -13 -11 -37 -30 -54 -44 -56 -45 -130 -94 -142 -94
-6 0 -13 -4 -15 -9 -4 -10 -150 -81 -169 -81 -8 0 -23 -7 -33 -15 -11 -8 -31
-15 -45 -15 -14 0 -35 -7 -45 -15 -11 -8 -33 -15 -49 -15 -15 0 -38 -5 -50
-12 -75 -40 -502 -40 -574 0 -12 7 -33 12 -47 12 -13 0 -31 7 -40 15 -8 8 -20
15 -27 15 -6 0 -28 10 -48 22 -34 21 -47 30 -74 53 -7 6 -28 20 -47 32 -34 21
-91 83 -156 168 -38 50 -120 217 -133 270 -5 22 -14 54 -19 70 -18 54 -34 129
-44 205 -30 238 -34 416 -14 517 9 41 16 92 16 113 0 21 7 57 15 80 8 23 15
53 15 66 0 13 7 40 16 61 9 21 22 52 29 68 7 17 23 55 35 85 38 94 146 245
227 318 92 83 243 172 292 172 11 0 35 6 53 14 81 35 238 48 388 33z m7184
-124 c4 -43 7 -87 8 -98 4 -76 -37 -203 -66 -205 -5 0 -18 -7 -28 -17 -33 -29
-108 -36 -477 -40 -211 -2 -372 -8 -383 -14 -17 -9 -18 -27 -18 -248 0 -187 3
-241 13 -250 9 -7 128 -12 371 -13 l358 -3 15 -43 c15 -47 14 -252 -3 -327
l-9 -40 -359 -3 c-245 -1 -364 -6 -373 -13 -10 -9 -13 -100 -13 -473 l0 -462
-87 -13 c-85 -13 -267 -10 -375 5 l-48 6 0 1157 c0 637 3 1161 7 1164 3 4 334
7 734 7 l727 0 6 -77z m5196 53 c0 -8 -4 -18 -10 -21 -5 -3 -10 3 -10 14 0 12
5 21 10 21 6 0 10 -6 10 -14z m-15902 -81 c2 -48 8 -72 18 -78 18 -10 18 -54
-1 -91 -23 -43 -19 -57 28 -111 41 -48 57 -85 71 -173 4 -24 0 -41 -16 -62
-18 -24 -20 -35 -11 -62 8 -28 13 -33 38 -31 48 4 55 -11 55 -106 0 -57 5 -96
15 -115 19 -36 19 -41 -2 -87 -11 -23 -27 -40 -42 -44 -22 -6 -23 -9 -17 -62
8 -72 26 -108 51 -108 11 0 29 -13 40 -30 16 -23 30 -31 58 -33 42 -4 57 -26
57 -84 0 -23 12 -44 45 -79 40 -42 45 -54 45 -94 0 -25 -4 -45 -8 -45 -13 0
-42 56 -42 81 0 30 -28 59 -57 59 -18 0 -23 5 -23 26 0 18 -6 28 -20 31 -12 3
-28 19 -36 35 -20 39 -59 36 -59 -4 1 -16 -3 -28 -7 -28 -13 0 -28 38 -22 54
3 9 1 16 -5 16 -6 0 -11 9 -11 20 0 12 -19 39 -41 61 -39 38 -41 43 -35 81 5
30 1 51 -14 83 -11 23 -25 69 -31 101 -6 33 -16 68 -22 79 -11 21 -20 56 -40
160 -7 33 -18 71 -26 84 -8 14 -13 55 -14 100 0 44 -6 87 -13 103 -19 38 -17
71 6 98 17 20 19 32 14 99 -3 42 -10 86 -16 98 -9 18 -6 32 13 70 27 54 37 64
59 60 11 -2 16 -19 18 -72z m15882 -22 c0 -21 -3 -24 -9 -14 -5 8 -7 20 -4 28
8 21 13 15 13 -14z m-3299 -228 c-2 -146 1 -240 8 -258 l11 -28 192 6 c106 4
198 3 204 -2 12 -8 18 -122 16 -263 l-2 -75 -199 0 c-151 0 -203 -3 -213 -13
-10 -10 -14 -99 -16 -404 -3 -371 -2 -393 18 -452 11 -34 28 -69 38 -77 35
-30 118 -49 212 -49 64 0 92 -4 94 -12 40 -138 48 -282 18 -318 -17 -21 -29
-23 -213 -32 -107 -5 -207 -9 -224 -9 -67 -1 -181 14 -202 27 -12 8 -28 14
-34 14 -20 0 -99 70 -123 109 -13 20 -33 64 -44 99 -21 60 -22 76 -22 576 0
466 -2 515 -17 527 -11 10 -50 14 -137 15 -117 1 -121 2 -134 25 -17 32 -12
264 7 298 13 24 14 24 136 17 94 -5 124 -4 133 6 6 8 12 85 14 193 3 169 5
182 27 218 13 22 45 52 70 67 l45 29 170 -2 170 -2 -3 -230z m3179 176 c0 -5
-6 -14 -14 -20 -7 -6 -16 -25 -20 -41 -6 -32 -23 -40 -32 -16 -3 8 7 31 23 50
27 35 43 45 43 27z m56 -377 c-7 -18 -26 -18 -26 0 0 8 5 27 12 43 l12 28 4
-28 c2 -16 1 -35 -2 -43z m-206 39 c0 -10 -5 -25 -10 -33 -7 -11 -10 -7 -10
18 0 17 5 32 10 32 6 0 10 -8 10 -17z m1 -116 c-6 -6 -11 -21 -11 -34 0 -29
-21 -74 -31 -67 -19 12 -9 70 16 92 14 12 25 28 26 34 0 10 2 9 6 0 3 -8 0
-19 -6 -25z m-9651 -2 c9 -8 22 -15 30 -15 21 0 80 -69 103 -121 11 -27 26
-49 32 -49 6 0 43 25 82 55 39 30 74 55 78 55 4 0 27 14 52 30 24 17 51 30 59
30 8 0 29 8 47 17 46 24 293 24 328 0 13 -9 30 -17 38 -17 23 0 117 -82 150
-132 37 -55 59 -60 99 -22 91 85 248 167 357 184 165 27 305 -1 396 -79 46
-40 109 -122 109 -142 0 -6 6 -23 14 -37 35 -68 40 -141 46 -667 7 -557 6
-555 60 -661 l20 -38 -27 -28 c-15 -15 -32 -28 -39 -28 -7 0 -25 -6 -41 -14
-58 -30 -148 -48 -209 -43 -127 10 -197 48 -235 124 -24 48 -24 49 -29 518 -6
536 -7 543 -78 613 -42 40 -47 42 -103 42 -62 0 -108 -18 -158 -62 -14 -13
-38 -31 -53 -41 l-28 -17 0 -574 0 -574 -62 -7 c-81 -10 -305 -10 -385 0 l-63
7 0 553 0 553 -24 54 c-33 75 -78 108 -148 108 -33 0 -68 -7 -91 -19 -51 -26
-144 -98 -151 -118 -4 -9 -6 -266 -6 -572 l1 -556 -58 -10 c-68 -11 -303 -11
-385 0 l-58 7 0 853 c0 468 3 855 8 860 4 4 74 5 156 2 113 -5 153 -10 166
-22z m-1020 0 c14 -8 34 -14 46 -15 31 0 140 -104 169 -161 18 -37 25 -67 25
-108 0 -31 5 -62 10 -67 7 -7 9 -238 8 -675 l-3 -664 -60 -9 c-77 -12 -313
-12 -387 0 l-58 9 -1 550 c-1 303 -6 575 -12 605 -5 30 -11 64 -13 76 -2 11
-19 37 -37 56 -29 31 -43 37 -97 44 l-64 9 -9 40 c-12 54 -4 282 10 296 18 18
107 26 283 27 126 1 171 -2 190 -13z m6440 -9 c66 -26 142 -88 164 -132 10
-22 26 -52 35 -69 14 -27 16 -103 16 -755 l0 -725 -60 -10 c-66 -10 -298 -11
-387 0 l-58 7 0 599 0 600 -25 47 c-32 61 -61 81 -134 88 l-59 7 -8 85 c-8 96
2 242 17 257 16 16 111 23 289 21 131 -2 174 -6 210 -20z m4407 -49 c-4 -41
-13 -87 -22 -103 -8 -16 -15 -46 -15 -66 0 -20 -4 -40 -10 -43 -5 -3 -10 -16
-10 -28 0 -34 -28 -67 -56 -67 -24 0 -32 14 -14 25 12 8 50 93 50 114 0 9 14
52 30 96 16 44 30 92 30 106 0 24 7 39 18 39 3 0 2 -33 -1 -73z m-186 -94 c9
-22 7 -34 -5 -56 -9 -16 -16 -42 -16 -58 0 -16 -7 -46 -16 -67 -8 -20 -15 -50
-16 -67 0 -36 -33 -154 -59 -211 -11 -23 -19 -53 -19 -68 0 -15 -11 -38 -25
-52 -18 -18 -25 -36 -25 -64 0 -21 -6 -45 -13 -52 -27 -29 -47 -69 -47 -96 0
-16 -7 -60 -14 -98 -8 -38 -17 -85 -21 -104 -4 -30 -11 -38 -38 -45 -29 -9
-32 -14 -29 -43 1 -18 -5 -43 -13 -55 -8 -12 -15 -33 -15 -47 0 -25 -19 -69
-52 -120 -9 -14 -21 -43 -28 -65 -7 -21 -26 -57 -41 -79 -16 -21 -29 -50 -29
-64 0 -14 -6 -33 -14 -41 -18 -21 -76 -131 -76 -145 -1 -17 -79 -96 -96 -96
-12 0 -14 7 -9 29 7 34 0 38 -85 43 -50 3 -55 1 -58 -19 -2 -16 7 -29 37 -49
23 -15 41 -30 41 -35 0 -5 -9 -23 -20 -41 -11 -18 -20 -40 -20 -48 0 -9 -9
-23 -20 -33 -11 -9 -20 -27 -20 -40 0 -24 -25 -67 -47 -80 -18 -11 -16 -37 4
-59 13 -15 14 -23 5 -43 -6 -14 -17 -25 -23 -25 -14 0 -47 -38 -59 -67 -5 -13
-16 -23 -25 -23 -18 0 -75 -76 -75 -102 0 -10 -4 -18 -9 -18 -5 0 -29 -28 -54
-62 -25 -35 -54 -72 -66 -82 -11 -11 -21 -31 -21 -45 0 -20 -10 -32 -45 -53
-52 -31 -78 -82 -77 -145 1 -26 -3 -43 -12 -46 -13 -5 -112 -115 -191 -212
-22 -27 -48 -57 -57 -66 -10 -10 -18 -38 -20 -66 -3 -47 -4 -48 -43 -56 -39
-8 -66 -34 -133 -125 -16 -21 -20 -22 -44 -11 -40 17 -58 6 -58 -37 0 -31 -8
-44 -60 -95 -33 -32 -60 -61 -60 -65 0 -4 -8 -13 -17 -20 -17 -12 -17 -13 1
-27 17 -13 17 -14 -10 -33 -38 -25 -82 -44 -103 -44 -9 0 -34 -23 -54 -50 -21
-27 -43 -50 -49 -50 -21 0 -78 -51 -78 -71 0 -13 -7 -19 -21 -19 -12 0 -41
-21 -68 -50 -26 -28 -53 -50 -59 -50 -6 0 -26 -20 -44 -45 -18 -24 -40 -44
-49 -45 -16 0 -59 -43 -59 -59 0 -5 -16 -19 -35 -31 -19 -12 -35 -26 -35 -31
0 -5 -7 -9 -15 -9 -8 0 -15 -4 -15 -10 0 -5 -6 -10 -14 -10 -13 0 -90 -55
-131 -93 -11 -10 -31 -25 -45 -32 -14 -7 -36 -25 -49 -39 -14 -14 -31 -26 -38
-26 -17 0 -65 -30 -76 -47 -11 -18 -94 -100 -110 -107 -25 -13 -55 -32 -68
-43 -8 -5 -27 -13 -44 -17 -16 -4 -44 -20 -60 -36 -17 -16 -39 -30 -50 -31
-79 -8 -91 18 -29 63 54 38 64 68 39 115 -18 33 -18 34 1 53 10 10 54 37 96
59 l78 41 15 -24 c12 -18 13 -29 5 -51 -22 -57 16 -55 82 5 18 17 37 30 42 30
14 0 56 41 56 56 0 6 -7 17 -15 24 -8 7 -15 23 -15 35 0 13 -8 26 -17 29 -26
11 65 97 128 121 55 21 79 46 79 81 0 16 13 30 45 48 29 17 45 34 45 46 0 11
12 26 29 35 17 8 38 29 48 46 16 27 80 76 141 108 12 6 22 17 22 24 0 7 11 24
25 37 14 14 33 33 43 43 9 9 21 17 27 17 6 0 28 20 48 45 21 25 46 45 56 45
24 0 63 44 59 66 -2 13 5 20 24 24 28 5 68 48 68 73 0 8 11 18 25 21 14 4 25
10 25 15 0 5 16 19 35 31 24 15 35 29 35 46 0 16 7 25 23 29 12 4 37 27 56 53
34 47 81 99 134 149 15 15 27 36 27 47 0 30 12 44 50 64 21 11 37 28 43 47 5
17 26 50 47 75 20 25 42 55 48 67 7 11 28 31 47 43 25 16 35 29 35 47 0 15 11
41 26 60 21 27 32 33 64 33 34 0 41 4 46 25 3 14 11 29 18 33 25 16 46 63 46
105 0 34 6 49 25 67 14 13 46 58 71 99 24 42 50 85 57 96 7 11 17 23 22 27 71
47 74 52 75 103 0 35 5 56 18 67 27 26 42 46 42 58 0 10 38 69 51 80 4 3 9 14
13 25 6 20 19 35 84 95 41 37 55 72 56 133 1 41 6 53 30 73 15 14 33 23 40 21
12 -4 14 -51 3 -84 -6 -16 -3 -24 12 -32 27 -15 48 -5 54 27 9 45 63 110 99
120 18 4 38 18 44 31 6 12 18 27 27 34 26 20 12 137 -21 172 l-26 28 -23 -29
c-12 -16 -23 -34 -23 -40 0 -6 -9 -19 -20 -29 -12 -11 -20 -31 -20 -52 0 -33
-45 -109 -76 -126 -19 -11 -17 0 11 58 14 28 25 59 25 69 0 24 39 106 50 106
5 0 12 14 15 32 4 18 11 39 16 48 34 65 99 211 99 223 0 8 23 59 50 113 28 54
50 105 50 114 0 10 14 36 31 60 17 24 38 58 45 76 17 41 32 44 36 7 4 -34 32
-38 36 -5 2 12 12 27 23 32 11 6 19 21 19 35 0 13 5 27 10 30 13 8 40 72 40
96 0 10 -11 26 -25 35 -32 21 -32 36 -1 28 19 -4 28 0 42 21 13 20 14 29 5 38
-19 19 -13 36 10 30 14 -4 25 0 31 11 5 9 21 16 36 16 15 0 32 4 39 8 6 4 14
48 18 100 6 69 11 92 22 92 7 0 18 -12 24 -27z m-171 -84 c0 -6 -4 -7 -10 -4
-5 3 -10 11 -10 16 0 6 5 7 10 4 6 -3 10 -11 10 -16z m270 -210 c0 -5 -4 -9
-10 -9 -5 0 -10 7 -10 16 0 8 5 12 10 9 6 -3 10 -10 10 -16z m-15420 -56 c0
-7 -4 -13 -10 -13 -5 0 -10 12 -10 28 0 21 2 24 10 12 5 -8 10 -21 10 -27z
m15379 18 c10 -7 13 -23 8 -64 -5 -53 -36 -157 -47 -157 -3 0 -14 14 -25 30
-11 16 -23 30 -27 30 -5 0 -8 7 -8 16 0 11 6 14 21 9 43 -14 75 49 47 94 -11
18 -6 51 9 51 4 0 14 -4 22 -9z m-15524 -220 c3 -5 0 -22 -7 -36 l-12 -27 -8
27 c-4 16 -5 32 -2 37 7 11 21 10 29 -1z m15466 -81 c-2 -37 -13 -72 -32 -107
-16 -29 -29 -58 -29 -66 0 -8 -8 -25 -18 -38 l-19 -22 -6 32 c-4 18 -5 44 -2
57 3 13 7 35 10 49 4 17 12 25 25 25 26 0 45 46 32 75 -12 27 3 57 26 53 14
-3 16 -13 13 -58z m-15413 -62 c17 -47 -1 -55 -31 -14 -33 42 -33 46 -4 46 16
0 26 -9 35 -32z m272 -194 c0 -8 -4 -12 -10 -9 -5 3 -10 10 -10 16 0 5 5 9 10
9 6 0 10 -7 10 -16z m44 -96 c4 -18 9 -51 12 -73 3 -22 11 -53 19 -70 38 -87
45 -108 45 -138 0 -18 6 -41 14 -52 7 -11 17 -31 21 -45 4 -14 18 -39 31 -56
13 -17 24 -36 24 -42 0 -21 34 -76 68 -109 26 -25 32 -39 32 -73 0 -22 7 -52
16 -66 15 -23 15 -26 0 -43 -9 -9 -16 -23 -16 -29 0 -18 -45 -43 -64 -36 -25
9 -17 56 12 69 33 14 27 43 -18 84 -30 28 -40 44 -40 68 0 35 -34 69 -79 80
-39 9 -43 13 -30 29 9 11 9 18 1 26 -7 7 -12 40 -12 74 0 42 -5 65 -15 74 -8
7 -15 21 -15 31 0 26 -28 49 -61 49 -34 0 -37 17 -14 73 8 20 15 57 15 82 0
25 7 57 16 70 9 14 14 31 11 39 -6 16 2 28 13 21 4 -3 11 -19 14 -37z m14976
3 c0 -16 -7 -34 -15 -41 -8 -7 -15 -26 -15 -42 0 -17 -6 -42 -13 -56 -31 -61
-46 -99 -52 -135 -9 -56 -42 -127 -59 -127 -20 0 -36 -31 -36 -70 0 -17 -11
-47 -24 -68 -28 -45 -66 -126 -66 -143 0 -6 -13 -28 -30 -49 -16 -21 -30 -45
-30 -54 0 -22 -40 -96 -52 -96 -6 0 -7 7 -2 18 5 9 9 43 10 74 0 37 7 64 17
75 8 10 21 38 29 61 7 24 21 48 31 53 10 6 17 21 17 38 0 16 7 34 15 41 8 7
15 21 15 32 0 11 11 34 24 51 13 18 26 47 30 65 3 19 18 44 36 59 21 17 30 33
28 48 -1 12 4 32 13 46 9 13 19 34 23 46 4 11 13 27 21 33 8 7 15 23 15 36 0
13 11 40 25 60 14 20 25 45 25 55 0 11 5 19 10 19 6 0 10 -13 10 -29z m-413
-929 c-13 -15 -30 -68 -32 -97 -1 -28 -50 -133 -69 -150 -22 -20 -63 -81 -71
-104 -4 -14 -16 -39 -26 -55 -10 -17 -24 -42 -31 -56 -7 -14 -18 -31 -25 -38
-7 -7 -13 -19 -13 -26 0 -30 -43 -92 -76 -109 -40 -21 -51 -41 -34 -62 15 -18
-14 -89 -45 -109 -12 -8 -42 -47 -66 -86 -52 -85 -108 -152 -120 -144 -5 3 -9
30 -9 60 0 47 3 56 23 63 12 5 42 29 66 54 40 42 43 47 36 85 -6 37 -4 41 28
61 19 12 42 38 51 59 10 20 21 45 26 54 6 10 10 24 10 31 0 13 33 61 80 116
11 13 20 30 20 38 0 7 8 13 18 13 23 0 42 19 42 41 0 25 48 116 64 122 16 7
116 178 116 200 0 9 5 19 11 22 5 4 15 19 21 33 6 17 12 22 15 14 3 -7 -2 -21
-10 -30z m-14180 -22 c21 0 41 -13 74 -47 82 -86 101 -137 66 -181 -6 -7 -13
-30 -16 -50 -5 -30 -11 -38 -32 -40 -15 -2 -32 5 -43 16 -16 19 -16 20 13 30
17 6 31 18 31 26 0 31 -21 67 -45 78 -18 8 -25 19 -25 38 0 33 -26 57 -97 89
-13 6 -23 17 -23 25 0 21 31 36 52 25 9 -5 30 -9 45 -9z m9403 -265 c0 -8 -7
-15 -15 -15 -8 0 -15 7 -15 15 0 8 7 15 15 15 8 0 15 -7 15 -15z m1594 0 c-6
-16 -24 -21 -24 -7 0 11 11 22 21 22 5 0 6 -7 3 -15z m-3 -148 c-8 -8 -11 -3
-11 19 1 25 2 27 11 11 8 -14 8 -22 0 -30z m159 13 c0 -5 -4 -10 -10 -10 -5 0
-10 5 -10 10 0 6 5 10 10 10 6 0 10 -4 10 -10z m-1150 -146 c0 -2 -7 -4 -15
-4 -8 0 -15 4 -15 10 0 5 7 7 15 4 8 -4 15 -8 15 -10z m994 0 c4 -10 1 -14 -6
-12 -15 5 -23 28 -10 28 5 0 13 -7 16 -16z m-10446 -223 c24 -23 32 -38 32
-65 0 -29 11 -45 73 -109 39 -41 83 -86 96 -101 18 -21 32 -26 67 -26 24 0 44
-4 44 -10 0 -5 -13 -10 -29 -10 -42 0 -61 -9 -61 -30 0 -10 -7 -23 -15 -30 -8
-7 -15 -25 -15 -41 0 -22 8 -33 33 -46 17 -10 41 -20 52 -23 26 -8 65 -77 65
-117 0 -26 11 -41 65 -89 36 -32 65 -63 65 -71 0 -7 12 -20 28 -30 15 -10 31
-23 35 -30 4 -7 23 -19 41 -27 22 -9 36 -23 40 -40 3 -14 10 -26 15 -26 4 0
21 -12 37 -26 56 -49 109 -53 120 -8 4 17 -2 34 -24 62 -44 55 -49 126 -9 120
17 -2 22 -9 20 -28 -5 -57 7 -85 50 -116 23 -18 53 -35 67 -39 24 -7 98 -54
149 -93 41 -32 8 -32 -39 0 -55 37 -102 34 -137 -9 -35 -44 -30 -76 19 -115
24 -18 53 -44 65 -58 11 -14 33 -32 47 -39 14 -8 26 -20 26 -27 0 -7 21 -31
48 -53 33 -29 56 -41 78 -41 22 0 42 -10 67 -35 41 -40 57 -43 81 -16 24 27
12 60 -29 76 -18 8 -43 23 -56 34 -113 97 -105 86 -107 145 -1 30 3 58 8 61
11 7 70 -55 70 -75 1 -29 147 -176 221 -221 39 -24 83 -52 98 -61 14 -10 33
-21 41 -25 28 -14 100 -68 100 -75 0 -4 -11 -2 -25 4 -34 15 -75 -3 -75 -34 0
-28 57 -88 84 -88 39 0 75 57 46 75 -5 3 -10 10 -10 16 0 18 27 8 54 -20 15
-16 45 -37 67 -46 21 -10 39 -22 39 -26 0 -5 -14 -16 -31 -24 -26 -14 -30 -21
-27 -53 3 -33 7 -38 42 -50 33 -11 42 -10 62 3 29 19 30 35 3 69 -11 14 -18
26 -15 26 23 0 148 -86 165 -112 10 -16 7 -18 -17 -18 -32 0 -52 -16 -52 -43
0 -29 57 -92 104 -116 24 -12 49 -28 56 -36 7 -8 20 -15 29 -15 9 0 33 -23 53
-50 l37 -50 -30 0 c-19 0 -46 11 -69 30 -21 17 -43 30 -49 30 -5 0 -23 16 -38
35 -15 19 -35 35 -43 35 -46 1 -131 43 -191 96 -20 17 -60 44 -89 58 -29 14
-82 53 -118 86 -36 33 -71 60 -78 60 -7 0 -27 14 -44 30 -17 17 -35 30 -40 30
-5 0 -15 6 -22 13 -7 6 -29 20 -48 30 -30 15 -64 41 -131 100 -9 8 -41 33 -71
55 -30 22 -67 55 -82 73 -15 18 -44 41 -64 52 -33 17 -63 44 -96 87 -6 9 -22
23 -36 33 -32 23 -84 60 -123 89 -17 13 -42 36 -56 53 -14 16 -64 67 -111 112
-101 97 -89 86 -148 148 -25 27 -62 58 -82 69 -37 20 -62 50 -96 113 -3 7 -29
37 -57 67 -100 105 -146 163 -176 223 -17 33 -38 66 -46 73 -22 18 -18 35 9
48 32 14 44 68 24 109 -11 23 -20 29 -56 31 l-42 3 0 58 c0 82 14 91 68 42z
m13002 -301 c0 -9 -9 -29 -20 -43 -11 -14 -20 -29 -20 -34 0 -5 -25 -36 -55
-69 -32 -34 -59 -75 -65 -96 -7 -24 -21 -43 -40 -54 -16 -10 -32 -29 -35 -43
-4 -14 -30 -53 -58 -86 -60 -69 -103 -125 -132 -171 -11 -18 -55 -69 -97 -113
-43 -44 -78 -86 -78 -94 0 -15 -119 -123 -171 -155 -25 -15 -38 -32 -43 -52
-3 -17 -12 -30 -20 -30 -8 0 -27 -16 -42 -36 -16 -20 -37 -43 -48 -52 -10 -10
-24 -23 -30 -30 -6 -7 -22 -23 -36 -36 -147 -139 -189 -175 -210 -181 -32 -9
-58 -33 -76 -67 -8 -16 -19 -28 -24 -28 -11 0 -33 -18 -79 -62 -22 -21 -39
-28 -82 -30 -43 -2 -55 -7 -57 -22 -2 -10 2 -22 8 -26 7 -5 10 -15 7 -23 -7
-18 -112 -104 -142 -117 -11 -4 -31 -19 -45 -31 -13 -13 -40 -32 -60 -43 -19
-10 -39 -25 -43 -32 -10 -17 -49 -18 -65 -2 -8 8 -17 5 -36 -13 -14 -13 -26
-29 -26 -35 0 -19 -41 -64 -58 -64 -19 0 -72 -49 -72 -67 0 -13 -38 -41 -155
-113 -23 -14 -50 -31 -60 -38 -11 -6 -30 -16 -43 -22 -12 -5 -34 -20 -47 -33
-14 -12 -59 -40 -100 -62 -41 -21 -75 -42 -75 -46 0 -4 -12 -12 -27 -18 -16
-6 -50 -25 -78 -42 -27 -16 -63 -37 -80 -45 -16 -8 -37 -18 -45 -23 -8 -5 -35
-19 -60 -30 -25 -11 -58 -32 -73 -47 -23 -21 -34 -25 -62 -20 -27 5 -35 3 -39
-11 -5 -15 -205 -123 -228 -123 -4 0 -30 -13 -56 -30 -27 -16 -56 -30 -64 -30
-9 0 -21 -7 -28 -15 -7 -8 -20 -15 -29 -15 -9 0 -53 -18 -99 -40 -91 -44 -107
-48 -98 -24 3 9 6 20 6 26 0 5 12 7 30 3 23 -5 37 -1 65 22 19 15 35 33 35 39
0 7 12 15 27 19 15 3 45 25 65 48 30 31 41 38 50 29 15 -15 54 -16 63 -2 3 6
16 10 27 10 11 0 35 15 52 33 17 19 44 37 59 41 17 4 32 17 37 32 9 23 15 26
58 24 26 -2 52 -2 59 -1 22 2 43 32 43 61 0 35 14 45 56 42 18 -2 35 2 39 8 3
5 15 10 26 10 10 0 24 9 31 20 8 12 24 20 40 20 37 0 66 26 89 78 l18 42 66 0
c37 0 65 4 65 10 0 6 7 10 15 10 8 0 15 -4 15 -10 0 -15 31 -12 51 6 10 9 33
23 51 32 25 13 33 24 33 43 0 29 21 59 41 59 24 0 55 43 49 67 -4 19 -1 23 19
23 14 0 29 6 33 14 4 7 23 17 41 21 27 6 32 4 32 -12 0 -11 5 -24 12 -31 15
-15 49 3 42 23 -3 8 2 27 12 44 15 25 15 32 4 46 -11 14 -11 19 4 33 14 14 20
15 36 4 27 -17 56 -1 65 35 9 38 44 73 71 73 33 0 55 27 52 64 -3 28 0 31 30
34 25 3 32 8 32 24 0 27 40 68 66 68 12 0 24 7 28 15 3 9 18 15 39 15 24 0 41
8 62 30 16 17 36 30 46 30 9 0 22 7 29 15 14 17 51 20 66 5 12 -12 71 8 78 27
3 7 -6 20 -19 29 -33 22 -45 82 -20 101 11 7 28 13 38 13 22 0 124 90 145 127
7 13 19 23 27 23 8 0 36 20 61 45 26 25 55 47 65 50 10 3 21 15 24 26 4 11 18
25 31 31 13 6 24 14 24 18 0 4 11 12 25 18 15 7 25 20 25 33 0 11 14 34 30 49
17 16 36 42 43 59 14 33 143 171 160 171 5 0 26 12 46 28 20 15 45 32 56 37
11 6 21 19 23 30 5 23 31 55 45 55 6 0 18 -7 28 -16 24 -21 67 -11 78 19 5 12
17 48 27 80 14 43 26 63 45 73 21 10 29 24 34 56 10 59 23 73 46 52 21 -19 39
-11 39 17 0 11 10 23 23 28 33 13 93 99 101 146 4 22 14 47 22 56 19 21 64 13
64 -11z m-12630 -50 c0 -5 -4 -10 -9 -10 -6 0 -13 5 -16 10 -3 6 1 10 9 10 9
0 16 -4 16 -10z m260 -222 c48 -55 64 -84 56 -105 -7 -17 -37 -17 -62 2 -10 8
-30 15 -44 15 -15 0 -31 5 -38 12 -13 13 -17 110 -5 121 18 19 51 3 93 -45z
m-412 -470 c7 -7 12 -22 12 -35 0 -15 8 -27 23 -32 13 -5 31 -21 40 -34 11
-17 28 -27 49 -29 23 -2 34 -9 37 -23 4 -23 35 -61 136 -165 70 -73 115 -147
115 -189 0 -18 6 -21 48 -21 57 0 72 -12 72 -57 0 -28 3 -33 24 -33 19 0 27
-8 36 -34 15 -47 36 -63 61 -48 27 17 29 16 29 -16 0 -31 18 -51 63 -70 40
-17 47 -15 47 13 0 33 23 32 45 -1 14 -22 15 -31 5 -55 -7 -16 -17 -29 -22
-29 -18 0 -3 -44 17 -50 37 -9 95 -55 101 -77 4 -16 14 -23 29 -23 27 0 85
-45 85 -65 0 -7 12 -27 26 -44 24 -29 31 -31 89 -31 71 0 90 -17 58 -52 -17
-19 -17 -21 11 -44 15 -14 40 -27 55 -30 16 -3 50 -26 76 -50 51 -45 81 -55
91 -29 9 24 27 18 46 -15 18 -32 45 -39 54 -15 8 21 17 19 53 -12 34 -30 39
-43 17 -43 -19 0 -27 -25 -13 -39 18 -18 45 -13 61 11 15 21 16 21 35 4 11
-10 21 -31 23 -48 4 -37 68 -79 95 -62 22 14 74 -11 67 -31 -15 -39 60 -105
88 -77 8 8 19 2 40 -19 16 -16 37 -29 47 -29 10 0 26 -9 36 -20 14 -16 26 -19
51 -14 27 5 33 2 39 -15 8 -25 68 -53 110 -51 47 3 51 1 63 -25 8 -16 20 -25
35 -25 13 0 32 -9 43 -21 26 -29 68 -49 103 -49 36 0 111 -47 111 -71 0 -9 6
-21 13 -27 14 -11 71 -23 111 -23 19 0 48 -15 87 -46 33 -25 59 -50 59 -54 0
-15 -37 -10 -50 6 -7 8 -23 15 -35 15 -12 0 -28 7 -35 15 -7 8 -21 15 -32 15
-11 0 -32 6 -46 13 -15 8 -42 21 -60 30 -19 9 -40 17 -47 17 -8 0 -58 22 -112
49 -54 27 -116 57 -138 67 -22 9 -44 23 -48 30 -4 8 -16 14 -27 14 -16 0 -48
13 -100 42 -8 4 -28 14 -45 22 -16 8 -52 29 -80 45 -27 17 -72 42 -100 57 -89
47 -109 59 -140 80 -16 11 -52 32 -80 45 -27 13 -54 27 -60 32 -61 46 -107 78
-140 96 -91 49 -135 78 -230 150 -55 42 -117 85 -137 96 -68 37 -248 191 -248
213 0 6 -11 12 -23 12 -30 0 -143 86 -274 208 -25 23 -50 42 -56 42 -6 0 -31
21 -56 48 -25 26 -57 54 -70 62 -27 16 -441 425 -441 435 0 3 -17 22 -38 43
-21 20 -50 56 -66 79 -32 48 -27 63 28 88 40 17 40 17 54 3z m11762 -57 c0
-53 -53 -121 -95 -121 -14 0 -25 2 -25 4 0 2 20 26 45 52 25 27 47 57 51 67 7
23 24 22 24 -2z m-190 -165 c0 -3 -4 -8 -10 -11 -5 -3 -10 -1 -10 4 0 6 5 11
10 11 6 0 10 -2 10 -4z m-180 -165 c0 -5 -37 -41 -82 -80 -46 -39 -110 -96
-143 -126 -33 -31 -78 -69 -100 -83 -22 -15 -51 -39 -65 -53 -14 -14 -32 -29
-40 -33 -37 -17 -62 -35 -95 -69 -19 -20 -50 -43 -69 -52 -18 -9 -42 -24 -52
-33 -30 -27 -153 -122 -158 -122 -3 0 -25 -13 -49 -30 -25 -16 -48 -30 -52
-30 -4 0 -24 -13 -45 -30 -21 -16 -41 -30 -44 -30 -4 0 -12 -4 -19 -10 -20
-16 -119 -80 -124 -80 -3 0 -35 -20 -72 -44 -36 -24 -91 -56 -121 -72 -30 -15
-66 -35 -80 -45 -14 -9 -59 -34 -100 -56 -41 -21 -93 -50 -115 -65 -23 -14
-63 -35 -90 -47 -28 -12 -59 -27 -70 -33 -73 -42 -207 -108 -219 -108 -7 0
-19 -7 -26 -15 -7 -8 -23 -15 -36 -15 -12 0 -26 -4 -29 -10 -7 -12 -92 -50
-111 -50 -8 0 -40 -13 -71 -29 -32 -16 -89 -40 -128 -52 -38 -13 -95 -36 -125
-51 -30 -15 -61 -28 -69 -28 -27 0 -160 -47 -251 -88 -30 -14 -71 -29 -90 -33
-19 -4 -51 -13 -70 -19 -19 -7 -51 -18 -70 -25 -40 -14 -98 -30 -185 -50 -33
-7 -96 -25 -140 -38 -44 -14 -134 -37 -200 -52 -66 -14 -138 -31 -160 -36 -62
-15 -184 -40 -250 -51 -33 -5 -72 -16 -87 -24 -24 -13 -32 -13 -63 0 -46 19
-38 36 14 29 25 -4 46 0 62 10 13 9 44 19 69 22 25 4 65 13 90 20 68 21 187
46 244 52 28 2 67 11 86 18 21 8 42 10 51 5 12 -7 119 20 194 50 54 21 114 39
155 44 24 4 49 11 55 15 5 5 33 11 62 14 28 3 73 17 100 30 26 13 65 27 87 31
21 4 52 13 70 21 17 7 51 21 76 30 25 9 57 23 72 31 14 8 37 14 50 14 12 0 43
12 68 26 25 14 77 36 115 49 39 12 79 27 90 33 66 36 146 72 158 72 8 0 44 16
81 35 37 19 76 35 86 35 10 0 22 5 25 10 6 9 87 50 99 50 3 0 27 13 53 29 27
16 77 39 113 51 36 13 75 34 88 47 13 12 28 23 34 23 10 0 225 124 280 161 15
11 31 19 35 19 5 0 32 16 62 35 29 19 56 35 60 35 4 0 20 12 37 28 16 15 47
36 69 47 22 11 56 32 76 48 20 15 40 27 44 27 4 0 24 14 45 30 21 17 41 30 45
30 5 0 27 16 51 35 23 19 47 35 53 35 6 0 11 4 11 9 0 5 8 12 19 16 10 3 31
19 47 35 16 16 36 30 44 30 8 0 42 25 75 55 32 30 62 55 66 55 4 0 34 22 66
50 32 27 63 50 68 50 6 0 34 23 63 50 29 28 57 50 61 50 4 0 30 21 57 47 27
26 52 48 57 49 4 1 11 2 16 3 5 0 12 10 16 20 10 31 95 78 95 52z m-9362 -538
c7 -7 29 -13 48 -13 39 0 72 -19 127 -72 24 -24 51 -40 75 -44 20 -3 64 -18
97 -34 33 -15 72 -30 88 -34 15 -3 27 -11 27 -16 0 -6 9 -10 21 -10 11 0 36
-12 55 -27 33 -25 123 -62 152 -63 7 0 30 -13 50 -29 20 -16 53 -32 72 -36 19
-4 62 -24 95 -45 33 -20 94 -47 135 -60 41 -12 82 -26 90 -31 35 -20 88 -41
125 -49 43 -9 92 -25 140 -45 17 -7 39 -16 50 -18 39 -11 93 -33 107 -44 8 -7
34 -15 58 -19 24 -4 55 -13 69 -21 14 -7 36 -13 49 -13 12 0 30 -4 40 -10 46
-25 92 -39 147 -46 39 -4 76 -17 106 -36 36 -22 67 -31 131 -38 131 -15 162
-21 181 -38 13 -11 36 -16 75 -15 33 0 65 -5 77 -13 11 -8 40 -14 65 -14 25 0
54 -6 65 -14 11 -8 43 -16 70 -19 28 -3 91 -15 140 -27 50 -12 126 -25 171
-29 44 -4 85 -11 91 -14 11 -7 62 -12 203 -22 30 -2 74 -10 98 -19 23 -8 49
-13 57 -10 26 10 125 -16 125 -33 0 -12 -7 -14 -32 -9 -97 20 -97 20 -108 -9
-10 -26 -12 -27 -29 -11 -29 26 -80 37 -122 26 -28 -8 -41 -19 -54 -48 -10
-20 -23 -40 -29 -44 -20 -14 -53 -8 -71 12 -16 18 -16 20 -1 35 9 9 16 24 16
33 0 25 -41 62 -70 62 -32 0 -73 -40 -68 -66 4 -26 -40 -33 -48 -7 -26 81 -52
98 -165 115 -68 10 -79 10 -115 -8 -28 -14 -42 -28 -50 -54 -21 -65 -54 -44
-54 35 0 17 -5 36 -12 43 -33 33 -78 -7 -78 -70 0 -20 -4 -39 -9 -43 -17 -10
-41 38 -41 80 0 49 -8 62 -43 70 -15 4 -30 11 -33 16 -3 5 -22 9 -43 9 -20 0
-46 7 -57 15 -10 8 -36 15 -56 15 -20 0 -59 5 -87 11 -58 12 -88 2 -93 -33 -2
-13 -10 -23 -18 -23 -11 0 -15 12 -15 46 0 62 -18 83 -67 76 -25 -3 -41 0 -49
9 -6 8 -19 14 -28 14 -9 0 -25 6 -36 14 -11 7 -39 17 -62 21 -24 4 -45 11 -49
16 -3 5 -22 9 -44 9 -32 0 -39 -4 -44 -26 -4 -14 -4 -41 0 -60 6 -34 -8 -49
-20 -19 -3 9 -18 15 -40 15 -43 0 -51 11 -36 56 16 47 -3 96 -34 92 -12 -2
-22 -11 -24 -23 -1 -11 -16 -28 -32 -37 -17 -9 -30 -24 -30 -31 0 -8 -6 -17
-13 -20 -19 -7 -77 32 -87 59 -6 15 -19 24 -37 26 -32 3 -44 36 -19 50 24 13
19 37 -8 44 -29 7 -92 -46 -83 -70 9 -22 -11 -31 -31 -13 -9 9 -30 19 -45 22
-16 4 -35 18 -44 31 -13 20 -24 24 -68 24 -48 0 -54 2 -57 23 -2 17 -11 23
-35 25 -21 2 -34 10 -38 23 -8 25 -26 24 -59 -2 -23 -18 -31 -20 -52 -10 -14
6 -36 11 -50 11 -15 0 -36 12 -54 31 -18 20 -38 32 -55 32 -16 0 -29 6 -32 16
-2 9 -9 24 -14 34 -7 13 -6 23 2 33 16 20 6 100 -16 124 -10 11 -26 20 -35 20
-23 0 -62 -56 -60 -88 3 -41 1 -45 -15 -28 -8 8 -15 23 -15 34 0 11 -9 40 -21
66 -11 25 -18 50 -14 55 9 16 -6 41 -25 41 -10 0 -25 7 -34 15 -8 8 -19 15
-24 15 -5 0 -15 7 -22 15 -7 8 -22 15 -34 15 -11 1 -46 14 -76 30 -30 17 -62
30 -71 30 -8 0 -25 14 -37 30 -14 18 -32 30 -45 30 -27 0 -47 17 -47 41 0 16
4 17 33 7 17 -7 38 -18 45 -25z m8367 -73 c12 -19 -16 -40 -51 -40 -23 0 -34
5 -34 15 0 28 71 48 85 25z m-8860 -110 c23 -26 8 -26 -25 0 -18 14 -21 20 -9
20 9 0 24 -9 34 -20z m8654 -54 c16 -19 -14 -56 -46 -56 -23 0 -42 38 -28 59
9 16 61 13 74 -3z m521 -46 c0 -5 -4 -10 -10 -10 -5 0 -10 5 -10 10 0 6 5 10
10 10 6 0 10 -4 10 -10z m-8490 -40 c0 -5 -4 -10 -10 -10 -5 0 -10 5 -10 10 0
6 5 10 10 10 6 0 10 -4 10 -10z m7407 -166 c3 -8 -1 -23 -10 -32 -21 -21 -67
-2 -67 28 0 16 7 20 35 20 23 0 38 -6 42 -16z m-423 -89 c-2 -14 -64 -44 -91
-45 -35 0 -27 23 15 42 40 18 78 19 76 3z m-264 -100 c0 -10 -10 -15 -30 -15
-47 0 -35 27 13 29 9 1 17 -6 17 -14z m-210 -75 c0 -5 -7 -10 -15 -10 -8 0
-15 5 -15 10 0 6 7 10 15 10 8 0 15 -4 15 -10z m-6573 -46 c-9 -9 -28 6 -21
18 4 6 10 6 17 -1 6 -6 8 -13 4 -17z m6383 -84 c0 -5 -7 -10 -15 -10 -8 0 -15
5 -15 10 0 6 7 10 15 10 8 0 15 -4 15 -10z m-800 -90 c0 -5 -7 -10 -16 -10 -8
0 -12 5 -9 10 3 6 10 10 16 10 5 0 9 -4 9 -10z m-532 -107 c6 -19 -25 -16 -32
3 -4 11 -1 14 11 12 9 -2 18 -9 21 -15z m-3873 -13 c3 -5 -1 -10 -10 -10 -9 0
-13 5 -10 10 3 6 8 10 10 10 2 0 7 -4 10 -10z m3731 -39 c-10 -16 -36 -13 -36
3 0 17 21 27 34 16 4 -5 5 -13 2 -19z m-1241 9 c-3 -5 -13 -10 -21 -10 -8 0
-14 5 -14 10 0 6 9 10 21 10 11 0 17 -4 14 -10z m150 0 c3 -5 -3 -10 -14 -10
-12 0 -21 5 -21 10 0 6 6 10 14 10 8 0 18 -4 21 -10z m105 -26 c0 -2 -9 -13
-21 -25 -15 -15 -19 -28 -14 -47 10 -41 19 -45 59 -23 40 23 63 26 86 11 12
-7 12 -12 -4 -29 -11 -12 -31 -21 -46 -21 -15 0 -33 -7 -40 -15 -7 -8 -18 -15
-25 -15 -7 0 -15 7 -19 15 -9 23 -30 18 -54 -14 l-22 -30 -47 25 c-46 25 -47
25 -80 7 -18 -9 -33 -21 -33 -25 0 -18 -28 -6 -55 22 -16 17 -37 30 -47 30
-10 0 -18 4 -18 10 0 18 36 27 126 32 75 4 97 10 132 32 29 18 42 33 42 49 0
20 4 22 40 19 22 -2 40 -6 40 -8z m2948 -36 c8 -8 9 -15 1 -25 -18 -21 7 -16
39 7 l27 20 40 -20 c21 -11 32 -20 22 -20 -9 0 -32 -7 -52 -15 -114 -48 -105
-46 -111 -30 -9 22 -45 19 -51 -5 -3 -11 -11 -20 -18 -20 -8 0 -27 -11 -43
-25 -17 -14 -39 -25 -50 -25 -12 0 -33 -5 -47 -10 -30 -11 -65 2 -65 25 0 22
20 28 46 14 19 -10 27 -10 36 -1 7 7 22 12 35 12 13 0 26 7 29 15 4 8 14 15
24 15 22 0 37 18 42 50 2 21 8 24 31 22 18 -2 29 2 33 12 7 19 16 20 32 4z
m-2646 -64 c3 -3 -1 -18 -9 -35 -16 -32 -50 -39 -60 -13 -9 25 51 67 69 48z
m-3362 -29 c0 -17 -2 -18 -24 -9 -23 9 -20 24 4 24 11 0 20 -7 20 -15z m90
-20 c0 -8 -7 -15 -15 -15 -16 0 -20 12 -8 23 11 12 23 8 23 -8z m344 -124 c38
-5 74 -15 80 -21 5 -5 20 -10 33 -10 13 0 23 -4 23 -10 0 -17 -82 -11 -135 9
-100 37 -135 54 -135 66 0 24 14 25 39 1 19 -17 46 -27 95 -35z m5026 21 c0
-4 -5 -13 -12 -20 -21 -21 2 -26 35 -7 33 20 74 22 91 5 5 -5 -2 -12 -20 -16
-16 -4 -34 -11 -41 -16 -6 -5 -38 -11 -70 -14 -32 -3 -71 -11 -88 -18 -88 -40
-105 -46 -122 -46 -10 0 -27 -7 -37 -15 -11 -8 -34 -15 -50 -15 -17 -1 -42 -7
-56 -15 -14 -8 -38 -15 -55 -15 -16 0 -39 -7 -49 -15 -11 -8 -41 -15 -66 -15
-25 0 -55 -7 -66 -15 -13 -10 -43 -14 -99 -14 -78 1 -79 1 -47 15 17 8 32 19
32 24 0 6 13 10 28 10 20 0 33 7 42 25 19 35 47 41 81 16 35 -26 46 -26 61 -1
7 11 20 20 28 20 8 0 32 12 53 26 37 24 67 26 67 4 0 -23 29 -8 49 26 l22 37
20 -22 20 -21 39 32 c22 17 40 35 40 40 0 4 5 8 10 8 6 0 10 -11 10 -24 0 -14
5 -28 11 -31 18 -12 69 17 85 46 13 26 54 42 54 21z m-1346 -48 c28 -11 6 -24
-38 -24 -24 0 -63 -7 -86 -15 -23 -8 -60 -15 -81 -15 -21 0 -66 -6 -101 -14
-73 -16 -388 -29 -388 -16 0 17 23 23 114 26 50 2 120 8 156 13 36 6 112 15
170 21 58 6 128 14 155 19 66 11 80 12 99 5z m-3454 -55 c0 -5 -4 -9 -10 -9
-5 0 -10 7 -10 16 0 8 5 12 10 9 6 -3 10 -10 10 -16z m107 -22 c3 -4 -15 -7
-41 -7 -30 0 -45 4 -41 10 7 11 70 8 82 -3z m2428 -16 c7 -12 -12 -24 -25 -16
-11 7 -4 25 10 25 5 0 11 -4 15 -9z m-2230 -33 c20 -20 20 -20 -20 -13 -58 10
-115 29 -115 38 0 16 115 -5 135 -25z m2138 25 c-7 -2 -19 -2 -25 0 -7 3 -2 5
12 5 14 0 19 -2 13 -5z m-211 -15 c-8 -8 -17 -8 -34 0 -22 10 -21 11 12 11 26
1 31 -2 22 -11z m1732 -29 c13 -67 8 -84 -26 -97 -76 -26 -328 -65 -328 -49 0
21 16 37 36 37 28 0 43 25 25 43 -39 39 25 36 75 -4 31 -24 46 -30 70 -26 18
3 37 0 43 -6 9 -9 18 -4 37 17 23 24 25 31 15 53 -10 21 -9 29 5 44 25 27 41
23 48 -12z m-124 -8 c0 -14 -18 -23 -30 -16 -6 4 -8 11 -5 16 8 12 35 12 35 0z
m-3102 -67 c29 -8 28 -24 -2 -24 -33 0 -57 10 -50 21 6 10 20 11 52 3z m110
-32 c3 -9 -2 -13 -14 -10 -9 1 -19 9 -22 16 -3 9 2 13 14 10 9 -1 19 -9 22
-16z m2226 -36 c4 -22 12 -46 18 -53 5 -7 8 -19 5 -27 -6 -16 -53 -23 -207
-31 -52 -2 -115 -7 -140 -11 -70 -9 -154 34 -104 53 9 3 30 -2 46 -12 23 -13
40 -16 72 -10 22 3 57 7 76 8 35 2 35 2 32 46 -4 64 2 76 30 57 29 -21 47 -20
77 3 14 10 39 19 57 18 29 -1 33 -4 38 -41z m-1886 -8 c17 -17 15 -28 -7 -28
-22 0 -35 15 -26 30 8 13 18 13 33 -2z m1579 -13 c-4 -8 -14 -15 -23 -15 -16
0 -16 2 1 20 20 22 31 20 22 -5z m-234 -20 l27 -34 -21 -12 c-12 -6 -49 -13
-83 -14 -57 -3 -60 -2 -38 12 14 10 22 26 22 43 0 51 54 54 93 5z m908 2 c-8
-8 -11 -7 -11 4 0 20 13 34 18 19 3 -7 -1 -17 -7 -23z m-204 -13 c-9 -9 -28 6
-21 18 4 6 10 6 17 -1 6 -6 8 -13 4 -17z m-1347 -9 c0 -23 3 -25 51 -25 36 0
49 -4 47 -12 -6 -17 -32 -21 -84 -13 -40 6 -44 9 -44 34 0 15 3 31 7 34 13 14
23 6 23 -18z m215 5 c-9 -15 24 -31 57 -28 25 2 34 8 36 26 3 21 22 32 22 13
0 -5 10 -13 23 -16 12 -4 36 -18 54 -31 25 -19 39 -23 60 -18 25 6 26 5 15 -8
-10 -13 -29 -15 -85 -13 -40 2 -80 6 -91 10 -10 5 -31 9 -47 10 -16 1 -42 2
-59 3 -16 1 -30 7 -30 12 0 18 32 60 41 54 5 -3 7 -9 4 -14z m222 -12 c-3 -8
-6 -5 -6 6 -1 11 2 17 5 13 3 -3 4 -12 1 -19z m-937 8 c0 -11 -19 -15 -25 -6
-3 5 1 10 9 10 9 0 16 -2 16 -4z m145 -6 c3 -5 -3 -10 -15 -10 -12 0 -18 5
-15 10 3 6 10 10 15 10 5 0 12 -4 15 -10z"/>
<path d="M6821 16824 c-17 -14 -31 -30 -31 -36 0 -16 76 -3 107 17 25 17 26
18 8 31 -28 20 -50 17 -84 -12z"/>
<path d="M16285 12480 c-9 -15 3 -30 24 -30 23 0 31 9 24 26 -6 16 -39 19 -48
4z"/>
<path d="M988 10141 c-15 -16 -31 -30 -37 -32 -8 -3 -9 -21 -4 -59 8 -51 10
-55 37 -58 16 -2 33 1 39 7 6 6 19 11 28 11 24 0 30 24 23 84 -11 83 -40 99
-86 47z"/>
<path d="M17030 9572 c0 -14 11 -21 26 -15 8 3 11 9 8 14 -7 11 -34 12 -34 1z"/>
<path d="M17084 8565 c-7 -18 3 -35 21 -35 18 0 26 15 19 34 -8 20 -33 21 -40
1z"/>
<path d="M1233 7454 c-8 -20 13 -42 27 -28 12 12 3 44 -11 44 -5 0 -12 -7 -16
-16z"/>
<path d="M16356 6326 c-14 -25 -26 -58 -26 -75 0 -26 4 -31 23 -31 38 0 71 44
70 90 -3 75 -29 81 -67 16z"/>
<path d="M16256 6114 c-13 -35 -5 -64 27 -93 73 -69 113 -3 50 83 -21 29 -67
35 -77 10z"/>
<path d="M15767 5133 c-10 -9 -9 -51 1 -57 18 -11 35 12 28 38 -6 26 -16 32
-29 19z"/>
<path d="M15620 4853 c-63 -28 -62 -63 2 -63 31 0 41 -4 45 -20 12 -47 45 -6
41 52 -3 38 -6 43 -28 45 -14 1 -41 -5 -60 -14z"/>
<path d="M14856 3949 c-29 -23 -35 -66 -10 -76 17 -6 82 24 101 47 7 8 13 23
13 33 0 25 -69 23 -104 -4z"/>
<path d="M13797 2943 c-4 -3 -7 -21 -7 -39 0 -19 -6 -34 -15 -38 -8 -3 -15
-15 -15 -26 0 -15 7 -20 28 -20 38 0 69 24 77 60 10 46 -2 70 -34 70 -15 0
-31 -3 -34 -7z"/>
<path d="M13433 2643 c-20 -8 -15 -31 8 -38 25 -8 44 7 36 29 -6 16 -21 19
-44 9z"/>
<path d="M4032 2865 c-15 -33 -8 -45 24 -45 22 0 25 4 22 32 -4 41 -30 48 -46
13z"/>
<path d="M13760 2316 c0 -9 7 -16 16 -16 9 0 14 5 12 12 -6 18 -28 21 -28 4z"/>
<path d="M3144 3006 c-10 -26 3 -46 30 -46 22 0 23 3 17 28 -8 30 -38 42 -47
18z"/>
<path d="M5490 2045 c-17 -21 -6 -96 16 -112 39 -29 114 -7 114 33 0 24 -79
94 -106 94 -6 0 -17 -7 -24 -15z"/>
<path d="M8838 1229 c-19 -10 -24 -34 -10 -43 5 -3 19 -2 31 1 15 4 21 12 19
26 -4 25 -17 30 -40 16z"/>
<path d="M8372 17280 c-17 -27 -15 -44 6 -63 50 -45 120 5 96 67 -9 25 -86 22
-102 -4z"/>
<path d="M9223 17277 c-13 -29 0 -57 27 -57 26 0 60 34 60 60 0 17 -7 20 -38
20 -31 0 -41 -5 -49 -23z"/>
<path d="M9412 17282 c-42 -20 -39 -46 7 -50 37 -4 51 9 51 46 0 25 -11 26
-58 4z"/>
<path d="M8270 17250 c0 -11 7 -20 15 -20 8 0 15 9 15 20 0 11 -7 20 -15 20
-8 0 -15 -9 -15 -20z"/>
<path d="M9834 17246 c-18 -46 27 -73 60 -37 15 17 16 23 6 36 -16 19 -59 20
-66 1z"/>
<path d="M9967 17243 c-24 -24 18 -73 63 -73 57 0 82 52 34 70 -29 11 -87 13
-97 3z"/>
<path d="M6955 17080 c3 -5 10 -10 16 -10 5 0 9 5 9 10 0 6 -7 10 -16 10 -8 0
-12 -4 -9 -10z"/>
<path d="M11417 16924 c-14 -14 -7 -25 13 -22 12 2 21 8 21 13 0 12 -24 18
-34 9z"/>
<path d="M14034 15506 c-7 -19 3 -36 22 -36 10 0 14 8 12 22 -4 26 -26 36 -34
14z"/>
<path d="M14144 15396 c-8 -34 2 -46 36 -46 37 0 45 13 24 45 -21 32 -52 33
-60 1z"/>
</g>
</svg>
